<?xml version="1.0"?>
    
<!--********* Copyright (c) 2024 Pareto Softare, LLC DBA Simplemaps.com ***************************************
************* Free for Commercial Use, full terms at  https://simplemaps.com/resources/svg-license ************
************* Attribution is appreciated! https://simplemaps.com *******************************************-->

<svg baseprofile="tiny" fill="#6f9c76" height="1000" stroke="#ffffff" stroke-linecap="round" stroke-linejoin="round" stroke-width=".5" version="1.2" viewbox="0 0 1000 1000" width="1000" xmlns="http://www.w3.org/2000/svg">
 <g id="features">
  <path d="M195.1 168.7l15-0.6 7.3-2.2 2.7 0.1 3.8 0.8 1.5 0.3 3.6 0 3.5-0.7 1.6-0.9 3.7-3.7 2.4-1.1 2.5-0.1 7.9 1.1 0.4 0.1 4.5 4 2.9 0.6 0.9-0.6 2.4-2.4 1-0.8 0.6-0.1 1.5 0.1 0.5-0.2 0.4-0.8 0.2-1.7 0.2-0.6 2.9-1.3 5.3 1.2 2.1-0.4 0.9-0.2 1.3-1.4 0.3-1.5 0.1-1.5 0.1-1.1 1.1-1.3 3.8-2.7 0.1 0 1.3-2.6 3.7-3.5 1.4-2.1 0.2-1 0-0.5 0.1-2.3 0.4-1.2 0.8-1 1.7-1.2 1-0.7 3.1-1.7 6.6-2 0.4-0.3 1.1-1.2 0.4-0.3 0.8 0.3 0.3 0.6 0.2 0.7 0.2 0.4 3.4 1.9 0.8 0.3 2.1-0.8 3.7-3.4 2.4-1.1 2.3-0.2 0.8 0.1 1.2 0.2 3.9 1.2 3.1 0.4 1 0.3 0.2 0.5 0.2 1.8 0.2 0.5 0.6 0.1 0.9-0.6 1.9-0.1 2.6-0.4 1.3 0.1 1 0.4 2.1 1.5 1.2 0.4 3.1 0.1 1.6-0.2 1.4-0.3 2-0.6 1.7 0 3.3 0.5 2.3-0.2 1.5-0.6 0.4-0.1 1.8-1.5 1.7-2.3 0.3-1.1-0.1-1.2 0.3-1 1.6-0.5 1.2 0.3 0.1 0.2 0.5 0.6 0.4 1.1 0.8 1.1 1.9 1.6 1.3 0.7 1.1-0.8 1.2-2.8 1-5.3 0.4-10.8 0.1-0.4 1-3.9 1.1-1 1.9-1.7 1.6-0.3 3-0.5 9.4 0.7 20.4 3.1 4.3-0.5 2.3-0.6 1.1-0.7 0.9-0.9 0.6-1.4 0.1-2.5 0.4-1 1.5-1.4 2.3-1.5 2.4-1 1.8-0.2 1.9 1.4 1 1.6 1 1 2.2-0.3 1.8-1 3.2-2.3 1.9-0.6 10.1 0.3 6.8 3.5 3.5 0.2 1.2-0.9 0.3-0.2 2.6-2.6 2-0.7 3.4 0 3.4 0.7 1.6-0.4 2.4-3.9 1.5-0.7 1.8 0.1 2.2-0.3 2.1-0.5 1.7-0.8 2.8-2.6 0.8 0.1 4.8 3.5 1.5-0.1 1.8-1.7 0.5-0.4 0.6-0.1 0.5-0.3 0.3-1 2.3 1.5 1.2 0.3 1.2-0.6 0.6-1 0.1-1.2-0.3-3-0.3-4.4 3-1.5 4.1 0.4 3.1 0.9 0.8 0.6 0.5 0.8 0.4 0.6 0.8 0.1 0.3-0.5 0.4-2.2 0.4-0.8 1.5-1.4 0.2-0.1 1.7-1.1 1.9-0.8 1.8-0.2 1.7 1.9 2 1.2 0.1 1.2-0.2 1.2 0.1 0.8 1 0.3 0.7-0.2 0.7-0.4 0.9-0.2 2.7 0.4 0.9-0.1 3.5-1.1 1.6-0.1 2.1 0.3 1.6-0.3 2.1-3 2.2-0.5 3-1.2 2.1 2 1.3 3.6 0.3 3.8 0.3 1.1 0.5 0.6 0.5 0.6 0.5 0.8 0.4 0.4 1 0.6 0.4 0.4 0.1 0.7-0.3 1.5 0.1 0.5 1.6 1.5 1.4 0.4 3.6-0.1-0.7 1.4 2.4 0 2 0.3 1.9 0.9 2 1.8 3.5 4.5 2.2 2 2.1 0.1 0.9-2-0.3-2.4 0.3-1.8 4-0.3 2.1-0.8 1.1-0.2 1.3 0.2 3.2 2 16.8 7.1 1.7-0.3 0.5 0 0.3 0.3 0.8 1.4 0.4 0.4 3.8 1.9 0.4 0.1 2 1.7 4.4 6.1 2 1.2 2.4 0.3 2.4-0.1 17.2-5.6 2.7-0.5 1 0.1 0.8 0.3 0.8 0 1-0.4 0.9-1.1 0.7-1.5 0.8-1.3 1.4-0.5 9.1 0.7 1 0.3 2.1 1.3 1 0.3 1.1-0.2 0.7-0.5 0.8-0.7 1.2-1 1.2-0.4 3.6-0.2 3.8-2.6 1.1-0.4 2.2 0.8 3.1 3.4 2 0.8 1.4-0.3 2.6-1.3 1.4 0 1.4 0.3 1.1-0.2 2.4-1.1 2.7-1.9 1.3-0.6 8.8-2.1 0.8 0.2 0.6-0.3 1.2-1.9 1.6-3.5 1.1-3.4 0.6-0.8 0.6-0.3 0.5-0.3 0.2-1.1-0.3-0.8-1.4-1.4-0.5-0.6-1-2.4 0.1-0.9 1.2-1.3 0.4-1.7 0.2-1.5-0.2-1.6-0.5-1.8-0.6-0.7-1.6-0.3-0.5-0.4-0.2-1 0.1-2.1 0-1.1-1-3.5-0.6-1.1-0.9-1.1-1.1-0.5-1.5-0.3-1.5-0.7-0.7-1.2-0.5-0.6-0.5-1.7-0.2-1.9 0-2 0.6-1.7 0.7-0.8 0.7-0.2 0.7-0.1 0.7-0.3 2.8-2.2 2.8-0.8 5.6-0.2 2.2-2.1 1.5 0.1 0.9 0.5 2.7 3.1 1.3 1.2 2.2 0.6 3.9-0.4 2.7-0.2 1.9 0.5 2.7 2.6 4 1 1.8 0.8 1.6 0.4-0.3 2.1-0.9 1.7 5.8 4.4 4.7 2.4 1 1.1 2-3-0.1 1.1 0.1 1 0.3 0.9 0.4 0.8-0.5 1.6 0.4 3.6-0.6 1.4 1.1 1.9 0.5 2.4 0.5 5.1 1.6 6.7 0.5 2.7 0 2.9-0.5 2.9-0.9 2.4-1.4 1.3-1.9 0.2-2.2-0.6-2-1.1-1-1.4-5.2 5.6-1.1 0.2-0.5 0.4-0.2 0.6-0.6 0.7-2.9 1.8-2.7 2.5-1.7 0.9-6.5 0.7-1.2 1 1.6 2.4-1.1 3-0.4 2.6 0.3 2.5 1.2 2.3-1.9 3 0 1.2 1.5 0.4 0.8 0.6-1.8 3.6 0.3 1.9 1.4 3.1 0.9 1.4 2.7 1.4 0.1 1.6-0.7 1.6-0.9 0.7-1.5 0.2-0.9 0.5-0.3 0.9 0.3 1.2 1.1 1.4 1 0.5 0.3 0.4-1.1 1.4-1.4 1.1-2.9 1.4-1.3 1.3 0.3 0.6 0.6 0.9 0.1 0.9-1.4 0.4-0.8-0.2-0.8-0.4-0.5-0.6-0.3-0.8-0.7 0-0.8 2.7-0.6 1.3-0.7 0.8-0.7 0-0.2-0.6-0.5-1.3 0 1.4-0.1 0.8-0.4 0.3-1 0.2 0 0.7 0.1 0.2 0.3 0 0.3 0.1-1 0.5-0.3 0.5-0.1 0.9 0.8 1.5-5.6 4.8-1.5 2.4-0.9 3.7-2.3 2.7-3.1 1.5-3.9-0.3 0.3-0.6-1.1-2.1-0.3-2.7-0.6-2.5-2.2-1 0-1 1.4 0.1 1.9-0.3 1.6-0.5 0.7-0.6-0.7-1.4-1.5-0.2-1.7 0.4-1.1 0.7-0.4-0.9-0.2-1.1-0.8 0 0 1.1 0.5 0.7 0.3 1.2-0.8 0-1.6-1.9-3.2-2-3.4-1-2.2 1.1-1.8-0.5-5.5-0.1-1.2-0.8-1.1-0.2-7.3 0.7-4.3-0.9-4.5-1.6-4.4-0.8-3.8 1.4-0.9-0.2-2.1-0.5-2.2-1.1-1.5-1.5-1.6-1-5.1-1.1-1.8-0.1-3.7-1.8-4.4-3.1-4.2-1.3-3.4 3.4-0.7 0-0.1-0.7-8-1.5-2.2-1.2-1.3-1-0.9-0.2-0.4-0.3 0.2-1.7 0.4-1.1 0.9-0.9 1-0.6 1.2-0.2-1.9-1.3-1.4-0.7-8.3 0.1-1.9 0.5 0.1 2.2-2.1 2-1.3 0.7-1.5 0.2 0.7 2.5-0.9 1.1-1.8 0.2-1.9-0.1-1.4 0.5-3.3 1.9-1.7 0.4-2.9 2.1-3 4.2-3.3 2.8-3.7-1.6-3.9 1.7-2 0.2-1.9-1 0.5-0.3 0-0.1 0.2-0.5-3.5-1.9-2.2 2-0.6 0.8-0.7 0-1-2.1-1-1.9-1.4-1.7 0.5-1.8-1.5-0.7-1.1-1-0.7-1.5-0.2-1.9-5-0.9-1.3-0.5-1 0.8-1.2 0.2-1.1 0.4-0.9 1.4-2.2-0.9-2.8 0.3-2.5 1.3-2 3-4.6 3.8-1.5 0.9 1.2 1 0.8 1.3-0.1 1-2.2 0.6-0.4 0.5 0 0.7 0.4 0.9 0.6 0.4 1.7-0.1 0.9 0.3-13.3 7.8-10.4 6.2-3.8 0.9-4.4-0.3-4.5-1.2-11.6-6.2-2-0.4-1.3-0.3-3.3 0.4-5.7 2.3-2.3 1.5-2.2 2-1.4 2.2-0.5 3.5 0.9 2.9 1.8 2.1 2.4 0.7 1.5 1 1.7 2.5 1.4 2.9 0.7 2.4 0.6 0.2 3.6 3.1 1.3 0.5 1.6 0.1 1.6-0.1 1.2-0.5 0.6 1.5 2 1.9 0.1 1.2-0.9 0.6-7 0.9-1.6 1.6-0.4 2.6 0.8 3.6 4.2 6.4 1 1 3.3 1.6 0.6 0.7 3.9 0.9 1.1 0.4 1.1-0.5 2.8-0.4 1-0.8 0-1.3-0.7-1.7-1.4-2.7 0.7-0.9-0.7-0.9 2-0.2 1.8 2.3 2.5 5.4 1.3 1.5 2.1 2 2.4 1.2 2-1.1 1 0.6 3.2 1.1 1.1 0.2 0.7 0.6 1.1 3.1 0.6 0.9 3.1 0 3.3 3.8 5.6 8.2 6.5 6.6 1 3.6-3.3 2.7-4.4 1-1.9-0.4-0.8-2-0.6-2.4-1.5-1.4-1.8-1-1.6-1.2-2.8-4.1-1.9-4.2-2.5-3.6-4.1-1.9-8.3-1.5-3-1.3-2.6-1.8-3.7-3.9-2.1-1.7-1.5-0.5-3.8 0.5-3.8-1-1.5 0.1-5.3 2.6-2.3 0.5-3-1.3-0.3 0.7-0.7 1.2-0.4-0.1-1.8 2.6-0.6 2.3 0.2 2.2 1.6 4.3 0.5 0.7 0.8 0.9 3.5 2.3 0.7 2.2 1.4 1.7 1.5 0.9 0.7-0.2 7 3.3 1.3-0.4 1.7 0.6 1.7 1.4 1.3 1.5 1.5 1.1 4 1.5 1.2 1.6-0.2 1.2-1.3 1.3 0.1 1.3 0.6 0.8 1.8 1.3 0.4 1-0.4 1.2-0.7 0.2-0.7-0.1-0.3 0.6 0.2 1.5 0.7 0.6 0.9-0.1 1-0.7 0 1.4 0 0.9 0.3 0.7 0.4 0.7-2.7 2.3-0.5 1.2 1.1 1.1 0 0.9-2 0.1-0.9 0.8 0.3 0.9 1.9 0.1 0 1-5.3 0.1-2.1-0.5 0.3-1.6 0-0.9-0.7 0-0.8 0.7-0.7-0.2-0.3-0.9 0.5-1.4-3.7-2.1-0.6-0.2-0.5-1.5-1.2-1-1.4-0.3-0.7 0.6-0.1 0.6 0.4 1.2-3.8-6.4-0.5-1.5 0.7-2.2 0.1-1.3-0.4-0.6-1.1-0.5-0.6-1.1-0.4-1.2-0.4-1-9.2-12.3-3.4-2.4-2-0.6-8.5-0.6-5.7-3.4-4.7-1.3-4.2 0.2-3.4 2.2-2.5 4.5-0.3 2.6 0.8 2.3 1 2.2 0.6 2.5 0.3 0.8 0.8 0.5 2.1 0.1 0.9 0.3 0.6 0.7 0.9 1.7 5.5 7.9 3.1 3.4 10.7 5.9 6.9 1.6 0.3 0.8 0 1.2 0.3 1.4 0.9 1.6 1.3 1.1 1.6 0.7 2.1 0.2 1.5 0.5-0.8 0.9-1.9 1-1.9 0.5-8.9-1.5-15-6.4-2.5-0.5-7.6 1.3-1.2 0.6 0.5-1.5 1.3-2.6 0.3-1.5-0.3-1.1-1.5-2.1-0.3-0.9-0.8-3.2-1.8-2.3-1.9-2-1.1-2.1 1.4-4.3 0.5-5.1-0.6-4.8-2-3.4-4.2-2.4-2.3-0.8-3.8-0.9-1.7-1.1-1.7-0.8-1.8 0.5-5.3-4-1.1-0.1-1.1-1-2.4-0.6-2.4-1-1.9-3.4-4.8-3.8-1.9-0.9-1.8-0.3-4.1 0.3 1-2.1-0.8-2.2-3-4 0.3-0.1 0.3 0 0.1-0.1 0-0.6-3.8-4.3-0.9-2.3 2.2-0.9 6.6-0.4 3.5-0.7 1.5-1.2 0.7-1.2 1.3-1 0.8-1.4-0.7-2.4-2.5-1.6-0.6-0.3-0.5-0.4 0.2-0.9 0.6-1.5-1.6-3.5-2.4-1.8-2.8-0.4-3 1.1 0.7 2.5-0.2 2.1-0.8 1.6-1.1 1.2-1.6 0.9-1 0.7 0.1 0.3-2.1 0-0.9-0.3-0.9-0.7-2 1.4-1.3 1.7-0.3 2 0.8 2.4-0.7 0-0.7-1 0 2-0.7 0 0-1-0.7 0-0.5 1.6-0.8-0.1-1.1-0.9-1.1-0.6-0.1-0.7-1.5 0.1-1.6 1.4-0.2 1.6 2 1.2-1 0.1-0.6 0.3-0.4 0.7-0.1 1.3-0.5 0.7-0.9-0.2-1.5-1-2.5 0.1-1.3 0.5-1.1 1.2 1.4 1.4 1.1 1.9 0.5 2.1-0.2 2 1.2 1.1 1 1.6 1.2 1.3 1.9 0.6 0.3 1.4-1.4 3.1-2.8 4.8-3.1 9.3 0.1 1.5-4 8.6-0.3 3 0.8 2.3 1.1 2.2 0.5 3.1-0.4 3 0.3 1.5 1.2 0.6 0.5 0.6 1.2 3.9 5.4 4.6 1 0.5 0.5 0.5 2.5 0.8 0.5 0.5 0.3 0.5 0.9-0.1 0.2 0.6-0.1 2.4 0.1 0.6 0 0.1 1.4 4.8 0.7 1.7 1.1 1.4 3.9 3.4 2.3 1.2 1.4 1.5 2.6 3.5 1 1.7 0.9 2.3 0.6 2.7 0.3 2.9 0.4 2.1 3.1 7.6 2.4 7.9 1.5 2.5 1.4 1.4 5.3 3.6 5.3 2.1 3.9 3.1 0.3 0.3 0.5 0.6 1.2 4.1 1.2 1.6 8.8 10 1.3 2.8 4.9 4.7 2.2 7.2 5.1 10.1 0.1 1.7-1 0.7-3.3 3.1-2 0.7-3.9 0.6-2 0.6-1.5 0.7 0.5 0.3 0.4 0.3 0.5 0.2 0.7 0.1 0 0.9-0.9 0.3-0.8 0.4-0.6 0.5-0.5 0.6-1.2-0.5-2.3 0.2-2.4 0.7-1.5 0.9-1.6 0.8-2.4-0.1-4.1-1.1 0.9-1.9 1.2-1.7-0.5-1.8 1.4-1.2 3.3-1.5 0 1.6-1.3 5.6 7.3-4 1.1-1.5-0.7-1.3 0.6-0.4 0.9 0.1 0.6 0.3 0.3 0.6 0.7-0.8 0.8-1.4 0.3-1.6-0.5-1.4-2.6-4.5-1.1-1.3 0.4-2.2-1.1-2.4-1.8-2.1-1.7-1.6-2-1.4-1.8-0.7-8-0.7 0-0.4 0.1-0.6-0.3-0.7-0.5-0.8-1-2.1-0.6-0.6-0.7-0.2-2.8 0.2-2.3-0.6-0.6 0.1 0.8 1.3 0 0.9-1.1 1.1-0.4 1.5 0.3 1.6 1.2 1.2-2.5 0.6-4 0.5-3.9 0.9-1.6 2.2-0.2 5.1 0.2 1.6 2.8 8.3 0.7 0 0.8-1.5 1.3-1.3-0.4-1.4 0.5-0.1 0.8 0.9 0.5 1.5 0.7-0.9 1 2.2 0.3 2.6 0.7 2.5 1.6 1.8-0.1-0.7 0.2-0.1 0.2 0 0.4-0.1-0.5-0.9-0.2-0.9 2.5 1.7 1.3 2.2 0.9 2.3 1.6 2-0.6 1.6 0.1 0.4 0.5 0.7-3.2 1.9-0.8 1.3 0.5 2.1 5.3-3.2 2.8-0.9 3.1-0.3 0 0.8-0.8 1-3.4 1.8-0.9 0.9-0.4 0.9-0.8 2.7-0.4 1-0.8 0.9-0.3 0.5-0.5 0.5-0.8 0.6-0.6 0.2-1.5-0.3-0.8 0.1-0.6 0.7-0.6 0.3-0.8 0 0.4 1.4 0.3 0.5-1.5 0.2-2.1 1.2-1 0.3-1.3-0.2-1.3-0.6-1.4-0.3-1.3 0.2-0.5 1-0.6 3-0.7 0.6-2.5 0.1-0.9 0.5-0.5 1.2-1.4 0-2.4 0.6-2.2 0.2-1-1.3-0.5-1-1.1 0.3-1.9 1.2-0.9-0.3-1.7-1.2-0.6-0.3-0.2-0.3-3.6-2.7-0.8 0.2-1.9 1.4-0.6 0.6-0.8 0.6-1.2 0.2-1 0.1-0.8 0.2-0.7 0.6-0.7 0.9-0.4-0.3-1-0.7 0 3.7 4.9-0.9 0 0.9-1.9 1.3 1 1.5 2 0.6 1-1.6 0.7 0-0.7 1.8 1.6 0 1.3-0.5 1.2-0.1 0.8 0.6 5.1-2.6 1.3-0.1 2.5 4.1 2.1 2.7 1.2 0.7 1 1.2 0.9 0.4 0.9-0.1 2-0.7 1-0.2 1.4 0.5 1.7 1 1.4 1.5 0.8 1.5 2.1-2.1 1.1-0.5 1.7-0.1 1.1 0.5 2 1.8 1.5 0.4 5.8 0.1 2.6 1 1.8 2.5 3.2 10.4 1.5 1.4 1.9 0.2 1-0.4 1.2-1.2 1.2-0.6 1.3 0.2 1.4-0.2 1.4-1.7-2-1.3-0.9-0.4 1.9-0.9 1.9 0.5 3.3 2.1 1.7 0.6 3.4 0.5 2 0.7 1.5 1.3 1.1 1.7 0.4 1.8-0.2 1.6-1.3 1.3-1.5 0.7-1.3 1.3-0.9 3 1.1-1.6 1.2 0 1.3 0.8 1 1.3 1.1 0.9 2.8 0.7 1.4 0.6 0 0.9-0.9 0.4-2.3 0-1 0.5-0.9 0.9-0.2 0.9 0.5 0.6 1.6 0.2 7-0.3 10.4 1.8 1.3-1 1.1-1.7 2.5 1.3 3.5 3.6-2.1 1.4-0.8 0.3 0 1 1.3 0.3 1.1 0.6 0.4 0.8-0.6 1 0 0.9 3.1 1.6 5 7.5 3.8 2.6 1.5 0.1 5.9-1 2.3 1.5 1.2 0.2 9.9 4.2 2.1 0.4 1.8 0.6 1.7 1.5 2.5 3.3 4.8 4 0.8 0.9 0.5 0.8 1.9 0.8 0.4 1.1-0.2 1-0.3 1 0.1 1 1.2 0.9-1.1 0.5-0.6 1-0.4 1.4-0.1 1.7-0.7-1.8-1.5 0.1-5.1 2.8 0.1 2.7 1.6 5.6 0.4 2.4 1 1.8 1 1.4 0.4 1.1-0.2 1.2-1.4 2.8-0.5 1.3 0 1.1 0.3 1.3 0.1 1.5-0.4 1.6 1.1-0.1 1.2 0.4 0.9 0.8 0.3 1.4-0.4 0.6-3.1 1.2 0.7 0.9 0.9 0.6 1.2 0.3 1.4 0-0.7 1 0.6 0.1 1.5 0.7-0.6 1.1-0.1 0.9 0.2 0.8 0.5 0.7-0.5 0.3-0.4 0.4-0.3 0.4-0.2 0.8 2.5 1.5 0.8 1.2 0.3 2.2-0.2 2.8-0.4 1.4-2.3 2.5 1.4 0.8 0 1-1.4 0 0 0.8 0.6 0.1 0.1 0.4-0.1 0.6 0.1 0.7-0.1-0.3 0-0.4-0.2 0-0.4 0.7 1.3 1.3-0.9 1.4-1.8 1.7-1.4 1.8-1.1-0.8-4-1.6-1.6-0.3-1.8-0.6-0.7-1.6 0.1-4.9-0.7 0-1.5 0.8-0.9-2.4-1.1-5.5-0.4 0.3-1 0.7-0.8-2.2-1.6-2.1-1.9-1.4-1.4 0.3-0.5-0.5-0.4-0.2-0.3-0.4-0.3-0.7-0.6 0-0.6 2.7-1.1 0-1.1-0.4-0.7 1.3-0.2-0.9-0.1-0.7-0.3-0.3-0.9 0.1 0.6-1.6-0.4-1.4-2.2-2.4-0.3-2.5-4.3-6.3-0.4-1.9-1.7-0.8-1.7 0.3-1.8 0.9-1.8 0.5-0.1-0.7 0.1-0.2 0.9-0.5 0.4-0.3 0.1-0.9-1.6 0.7-0.9-0.8-0.8-1.2-1.3-0.6-1.4 0-1.3-0.2-1.1-0.5-0.8-1 3.7-3.4 1-1.9-0.8-2.4-0.9-0.9-0.7-0.1-0.7 0.3-0.9 0.3-3.9 0-1 0.2-0.7 0.7-0.5 0.6-0.6 0.2-2.4 0.2-1.1 0.3-1 0.5-4 3.5-1.7 0.9 3.5 1-2.1 0.8-8.1-0.8-10.6 0.8-3.8 2-3.1 2.4-1.8 1.3-4.9 2.5-4.3-1.8-1 0.4-0.8-0.1-0.9-0.2-1.1-0.1-0.4 0.6 0 1.5-0.1 1.5-0.9 0.7-0.7 1.3 0.5 2.5 1.3 2 2-0.5 1.8 1 2.5 0.3 2.4-0.3 1.7-1 3.3 3.3 1.9 1.4 1.9 0.8-0.5 1.2-0.1 1.3 0.1 1 0.5 1-1.4 0.2-1.9 1.2-2.3 0.4-0.3 0.4-0.1 0.8-0.4 1.3 2.6 2 1.4 0.6 1.7 0.2-1 2.9-0.2 2 0.3 2 0.9 2.8-1.4 0 0.2 2.8 0.4 1.2 2.3 0.9 4.1 3.2 0.7-1 3.8 3.8 0.5 0.1 0.5 0.1 0.9 0.4 2 1.8 1.1 0.6 1.4 0.3 2.4-1.6-0.1-3.4-1.9-3.4-2.9-1.3 0-0.9 1.7-1.4 2-0.8 5.2-0.5 1 1.6-0.4 3.4-1.4 3.6-1.7 2 1 1.1 1.1 0.8 1.3 0.5 1.5 0.3 0 1-2 0.7-0.8 0.1 0 0.8 0.7 0 0.9 0.4 2.7 0.5 2.3 1.6 2.1 0.7 4.7 4-0.5 0.6-0.2 0.3 0.2 0.2 0.5 0.7 0 0.9-2 1.1-6.1 2-0.5 0.1-12.2 0.6-1.7-0.3 0.1 0.4 0.1 0.4 0.1 0.5 0.3 0.5-3.7-0.6-1.4 0.2 0.2 1.3-3.5 0.8 0 1.3 0.7 0.6 1 0.1 1.1-0.2-0.7 0.9 0 0.8 0.8 0.2 2 0.8-1.6 0.8-1.9 0.2-3.8-0.2-2.2 0.4 0 1.1 0.9 1.7 0.9 2.1-2.1 0.4-1.5 0-1.2-0.5-1.5-0.8 0-0.9 2.1 0 0-0.8-1.2-0.4-1.5 0.3-1.3-0.1-1-1.5 2.2 0.9-0.5-1.3-0.8-0.8-2.2-1.6-0.8 0.9-1.1 0-1-0.6 0-0.3-0.3-4 0.3-1.6 1.1 0.8 1.2 0.7 1-1 0.8-1.8 0.1-1.9 2.3 1.3 0.6 0.5 0-0.8-0.5-1.2-0.2-0.8 0-1.2-0.3-0.8-0.7-0.3-0.8-0.2-0.6-0.5-1.5-0.7-3.6 0.9-1.7-0.6 1.4-0.9-1.4-2.6-2.5 1.5-1 0.8-0.7 1.2-1.4-4.7-1.1-1.7-1.7-1.6-0.5-0.2-1.2 0.2-0.4 0-0.4-0.4-0.2-0.6-0.1-0.6 0-0.2-1.5-0.6-0.9-0.2-1.2 0 1.3 0.4 0.4 0.4 0.4 1-2-0.9-1.8 0.2-1.6 1-1.6 1.3-0.7-0.7-2.8-1.9 0.2-0.5 0.5-1.3-1.3-0.5-1.2-1-0.6-1.1 0.3-0.9-1.1-1.6-1.1-1.1-2.2 1-1.9 1.1-1.2 1.9-0.3 3.2 0.2 0.6 1 1.6 0.2 0.8-0.2 0.8-0.4 1.6-0.1 0.7 0.5 1.4 0.5 0.8 0.6 0.6 0.5 0.8 0.1 0.7-0.1 2.4 0.2 0.4 1.3 1-0.1 1.3-0.7 1.8 0.1 1.3 5.3 6.4 1 0.6-0.7 1.9 1.4 0 0 0.8-0.7 0 0 0.8 1 1.1 2.5 4.4 0.7 2.4 3.5 6.3 0.4 0.4 0.8 1.2 0.5 1.4-0.6 0.6-0.5 0.8-0.3 1.6-0.3 3.4 0.9 1.6 1.9 0.4 2.1-0.2 1.4-0.5 0.1 0.6 0.2 0.3 0.2 0.3 0.3 0.5-0.7 0.5 0.1 0.1 0.6 0.3-0.8 1 1.8 0.6 0.8 1.1-0.2 0.6-1.6-0.7 0.9 2.3 2.8 4.1-0.2 1.6 0.9 2.1 0.5 2.3-0.5 0-1.1 0.1-0.5-0.1 0.2 0.7 0.8 1.3 0.4 0.6 0.2-0.4 0.1-0.1 0.1-0.1 0.3-0.2 0.4 1.2 0.1 1.1-0.1 1-0.4 1.1 1.1 1.7 2 5.2 0.8 1.1-0.4 1 1.4 2.2 2.8 2.9 0.7 1.4 0.2 1.4-0.3 1.1-1.2 0.5 0 0.8 1.1 0 0.8 0.2 1.5 0.7-0.4 1-1.2 0.9-0.4 0.8-0.1 0.7 0 0.4 0.1 0.4 0 0.6-0.6 1.4-1.3-0.1-1.4-0.8-1-0.9-0.9 1.4-1.3 1.4-0.5 1.2 1.3 1.3-0.2 0.4-0.3 0.9-0.2 0.4 2.8 0-2.5 2.3 0.1 3.3 1.5 3.4 2 3.2 1.1 2.3 0.4 0.4 2.1 0.9 1.1 0.9 2 0.9 0.4 0.6 0.2 0.6 0.5 0.5 1 0.1-1 0.7-0.4 0.2 0 0.8 0.6 0.7 0 0.7-0.4 0.6-0.9 0.6 1.7 2.6 3.1 1.9 2.2 2.1-0.7 3-3.5-1.8-1.1 1.4-1.3 0.2-4.5-1.2-1-1.3-0.7-1.5-1.3-1.1 0-0.8 0.6-1.7-0.7-2-1.4-1.7-1.6-0.7-4.4 0.9-2.1 0.1-0.9-1.4-0.5-2.1-2.3-5-0.8-1.3-1.1-1.1-4.5-3.3 1.5-1.5-0.5-1.5-4.3-3.9-0.5-0.2-0.4 1-1.4 1.7-0.5-0.7-0.1-1.1 0.6-3-0.3-2-0.9-2.7-0.7-4.7-1.5-2.2-2.2-1.4-2.9-0.6-5.3-0.1-6.5 0.8-4.6 2.6 0.2 5.5-3.4 2.4-1.3 1.8-0.9 2.9 1.6-0.1 1 0.9 0.4 1.6-0.2 1.9-0.7 0-0.2-0.9-0.3-0.9-0.7-0.7-0.9-0.1-0.8 0.7-0.6 1.2-0.1 1.1 0.4 0.5 1.7 1.5-0.5 2.6-1.3 1.2-0.9-2.7-1.5 0.9-0.6 1.3 0 7.5 0.3 2.9 0.6 2.4 1.9 5.1-0.4 0.7 0.4 1.1-1.3 0.9-0.5 1.4 0.3 1.5 0.8 1.5 0 0.8-0.9-0.1-0.3 0.4 0 0.7-0.2 0.8-1.1-1.4-0.4-2.2-0.1-2.4-0.5-1.9-1.5-1.2-3.6-1.5-1.3-1.7-0.7 0-1 1.1-1-0.3-1-0.9-0.8-1.2-1-1.9 0.1-1.4 0.6-1.4 0.6-1.8 1.7 0.5 0.5-1.5-0.5-2.1-1-1.3 0.5-0.7 0.9-1.9-2.1 0 0.2-1.6-0.1-2 0.3-1.5 1.7-0.2 0-0.9-2-0.7 0.3-2.2 1.7-4.1-3 0.5-2-3.1-1.6-4.1-1.8-2.2 0.1-2.5-1.6-3.3-7.2-9.9-2.2-1.1-2.5 1.9-2.8-2-1.1-1.3-0.4-1.9 0.2 0 0.5-0.7 0.5-1.1 0.2-1.3 0.2-1.5 0.5-2.5 0.1-3.5-0.2-0.9-6.9-1.6-3.9-0.2-1.8 0.5-3.9 2.5-3.9 1.1-1.2 1.3-0.6 1.7-1 12.3-0.5 1.5-0.1 1.2 0.5 1.5 0.6 1.1 0.3 1.1-0.7 1.6 1.8 1.7 1.1 0.7 1.4 0.2 0 0.9-1.4 0.1-1.2 0.5-0.6 0.9 0.3 1-0.6 1.2-4.3 4-0.6 0.6-0.6 0.4-0.9 0-1.7-3.6-0.4-0.3-3.1-6.6-1.9 0.1-1.5 0.4-2.7 1.3-1.2-1.3-2.4-1-0.6-1.2-0.7 0-0.9 0.5-0.6-1-0.5-1.6-0.8-1.4 0.4-1.3-0.1-1-0.3-1.3 0-1.8 0.3-1.2 1.3-2.1 0.5-1.1 0.1-2.2-0.8-1.9-1.5-0.9-2 0.6 0.9-0.4 0.3-0.5 0.2-0.8-1-0.1-0.5 0.4-0.6 1.4-0.7-4.5-2.6-3.4-3.1-3.2-2.1-3.9-0.9-5.1-0.3-5.2 0.7-4.7 1.9-3.5 6.4-5.3 2.8-3 1.4-4.2-0.4-5.2-1-2.9-0.7-2.2-7-13.3-3.9-6-2-2.1-8.8-6.3-2.2-1.1-1.1-1.2-2-2.6-1.1-1-6-1.8-2 0.6-0.5 3.5-0.7 0-0.2-1.2 0-1.3-0.2-1.2-1-0.8 1.3-2.7 0.4-2.1-0.3-2.2-1.7-5.9-1.1-1.7-1.4-1.1-4.5-2.4-10.8-3.3-1-0.8-0.5-1.6 0.4-1.9-0.6-1 2.8-8.9 0.7 0 2.5 2.2 4.5-2.2 4.5-3.9 2.6-3.2 1.5 0.5 1.2-0.8 1.1-1.3 1.2-1.1 0-1-0.4-0.2-0.1-0.1 0-0.2-0.2-0.3-1 0.5-1 0.7-0.9 0.7-0.7 0.7 4.7-7.1 0.2-0.9 3.6-5.8 0.5-1.4 0.2-1.6 0.2-7.9-0.1-2.1 1.1 1.2 1.3 2.4 1.1 0.9-0.1-1.5-0.2-1.3-0.5-0.9 0.5 0.8 1.5 0.8 1.9 0.2 2.2 0.1 1.4 0.5 5.2 3.9 8.1 1.9 2-0.4 2-0.9 3.4-2.3 2.7-3.4 4.1-8.4 2.3-3.4 7.9-5 0.9-1 6.8 1.4 2.2 0 1-0.2 0.9-0.6 1 0.9 1.3 0.8 1.5 0.7 1.6 0.2 1.3 0.5 0.6 1.1 0.4 1.5 0.8 1.5 1.1 0.9 3 1.5 1.2 0.2 0.8-0.1 1.1-0.6 0.5-0.1 0.9 0.9 0.7 0.6 0.9 0.3 0.6 0.7 1.1 3.3 0.8 1.4 0.8 0.4 3.7 1.3 0.4 0.3 0.3 0.6 0.6 0.6 0.9 0.3 3.1 0 4.5 1.1 1.2 0.7 1.9-0.8 1.6 1 1.7 1.6 3.2 1.3 1 0.9 1.1 0.5 1.1-0.5 0.7-0.2 8.1 1.8 11.2 6 6.2 2.2 0.9 1 0.9 0.3 8.2 7.3 1.9 3.1 0.6 0.4 2 0.6 3.2 2.9 1.5 1 1.6 0.2 1.6-0.2 2.4-0.9 0.8 0 0.9 0.1 0.8-0.1 0.7-0.4 2.1-3.2 0.2-0.7-1-1.5-1.5-1.5-1.2-0.7-1.6-0.5-2.5-2.1-1.9-0.2 0.3-0.4 0.4-0.2-3.5-0.2 2.2-1.8 1-0.7 1.4-0.2 1.3-0.5 2.3-2.4 1-0.7 2.7 0.2 5.1 2.2 2-0.6 3.1 1.4 3.3-0.4 7.4-2.3 1.7-1.9 1.8-0.5 1-0.7-0.7-1.5-1.6-1.6-1.9-0.5-0.1-0.7 0.1-1.1 1.3-0.2 2.3-0.5 1.3-0.2 0-1-1.1-0.1-7.1-0.9-1.6-0.7 2.1-1.8-2.7-2.9-1.3-0.2-3.3 3.2-1.1 0.3-3.6-0.4 0-0.9 2.1 0-1.4-2-1.4-1.1-1.5-0.4-6-0.7-1.9 0.4-1.2 2 1.4-0.5 1.5 0.1 1.3 0.8 0.7 1.4-1.8 0-3-0.6-1.5 0.6-1.4-6.3-0.7 0-0.7 1.9-0.2-0.6-0.3-0.7-0.2-0.6-1.8 0.6-3.8 0.5-1.4 0.8-4.2-2.8 0.8-1.3 1.9-1.6 0.8-1.5-2-0.9-3.9-1.1-2.3-1.7-1.7-0.5-0.7-0.4-0.5-0.7-1.6-2.8 0.9-2.3-1.5-2.7-2.4-1.1-2 2.4 1.8 0.3 0.2 1-1 0.7-1.3-0.6-1.2-0.4-1.2 1.1-0.9 1.5-0.5 1 0 0.8 0.5 0.3 0.3 0.3 0.4 0.2 0.8 0.2 0 0.8-0.8 0.5-0.1 0.3 0.2 0.3 0 0.8-1.1 1.2-1.3 0.4-1.4-0.4-1.8-1.2 0-0.4-1.2-2.3-0.2 0-0.3-0.8-0.3-0.3 0.3-0.3 1-0.4-1.4-2.9-4.9-6.1-0.9-2.1-0.5-0.6-0.5-0.3-1.1-0.3-4.8-3 0.2 1.4 0.4 2.3 0.1 1.3-2.8 2.2-0.7 0.9 0.7 1 0.5 0.5 0.4 0 0.5-0.6 0.4 1.2-0.2 1-0.7 0.8-0.9 0.5 0.7 0.9-0.5 1.1-1.6 0.1-1.9-0.7-2.7-0.5-3.9 0.5-0.5-0.7-1.4-0.8-1.4-0.3-0.9 0.4-0.7 0-1.2-0.3-1.6 1-1.4 1.7-0.7 2.2-0.8-0.9-0.6-1.8-0.7-1-0.9-0.4-0.9 0.2-0.6-0.2 0.2-1.3-1.5-1.1-3.3-1-5.3-2.4-2-0.1-1.9 1-2.4-2.5-3.1-0.1-2.9 1.1-4.2 3.1-0.9 0.2-1.6 0-0.8-0.4-0.5-0.9-0.5-1-0.6-0.4-1 0.2-5 4.4-0.8 1.4-0.3 2.5-0.9 0.7-2-1.2-2.8-2.7-6 0-1.7 0.5-1.4 0.8-1.4 0.4-1.5-0.8-6.6 4.9-1.1 2.4-0.7 0-0.9-0.9-1.5-0.3-1.3-0.1-0.6-0.1-0.7-0.9-4.2-2.3 1.8-0.4 1.6 0.9 1.5 1.4 1.4 0.9 0-1-0.4-0.6-0.3-0.4 0.1-0.6 0.6-1-0.9-0.7-0.5-0.2 0-1 0.4-0.2 1-0.7-2 0 0.6-1.8-0.9 0.5-0.9 0.2-0.8-0.1-0.8-0.6-0.6 0.5-0.4 0.2-1.1 0.3 0.6-2.6-1.2-1.3-2.1-0.5-1.9-0.1-0.8-1.3-1-7.8-2.1-2.6-1.2-0.9-0.5-0.2-0.5 0.1-1 0.1 0.4 1.1 4.2 7-1.4 0 0.2 0.5 0.1 0.1 0.1 0 0.3 0.3-0.4 1.3-0.2 1.5-0.4 1.2-0.7 0.5-1.1 0.2-2.2 1.1-0.7 0.5 0.3 0.6 0.1 0 0.4 0.2-0.8 1-1.3-0.9-0.9 0.4-0.3 0.9 0.1 0.4 0.5 0.5-0.8 1-1.5 1.3-1.1 0.7-0.7 0.3-2-0.2-0.9-0.5-0.7-0.7-0.8-0.2-0.8 1.4 0.5 0.5 0.6 0.4 0.8 0.1-0.5 0.1-1.3 0.4-0.8 0.8-0.1 1.4-1.9-0.2-0.7-1.3-0.3-1.7-0.6-1.3-1.2-0.4-3.1-0.1-1.3-0.4 1.2-0.6 0.9-0.6 0.4-1-0.4-1.5-1 0.6-0.4 0.4 0.9-2 0.5-0.7-0.3 0.9 1.1 0.5 1.2-0.8 0.9-1.1 0.6-1.3-1.8-1.5-0.8 0-0.9 1.5-1.1-0.6-0.9-1-0.5-1.3-0.3-1.6 0.4-0.3 0.1 0 0-0.1 0.2-0.6 1 1.3 1.2 0.7 1-0.4 0.3-1.6-1.4 1 0.5-1.7-1-2.5 0.5-1.2 0-1-0.9 0-0.7-0.2-1.2-0.6 1-0.6 0.4-0.2 0.7-0.1-0.4-0.2-0.6-0.6-0.4-0.2 1-2.1 0.2-1-0.1-0.8-1-0.6-0.8 0.5-0.8 0.9-0.9 0.5-0.4 0.5-1.1 0.9-1.2 0.6-0.5-0.6-0.3-1.2-0.9-1.9-0.2-1.4 0.7-5.4 0.1-2.9-2.2-2.3-1.6-5-0.9-1.1-4 0-1.4-0.5-1.3-1.3-0.7-1.6-2.5-10.7-1-2.1-1.4-1-1.5 0.5-1.5 1.5-1.2 1.9-0.8 1.5-0.7-1.5-0.6 0.3-0.7 0.6-0.8-0.2-1.1 1-0.4-0.6-0.2-1.2-0.4-1-3.5-2.8 0-0.9 0.8-1.7 0.5-2.4 0.8-2.1 1.8-1 2.2 0.1 1.2-0.1 0.5-0.4-0.3-0.9-0.8-0.7-0.9-0.5-2.2-1.1-0.8-2-0.2-2.4 0.3-2 1.3-2.5 0.5 1 0.7 2.2 1.6 1.1 2 0.7 2-1 1.4-1.9 1-2.3 0.7 0 0.4 1.1 0.1 0.7-0.1 0.5-0.4 0.4 0.2 0.3 0.3 0.2 0.1 0.5-0.6 0.8 2.1 0.1 1.7-0.3 1.3-1 0.5-2.5 0.7 0 1 1.4 1 0.1 1.3-0.4 1.6-0.1 1.4 0.6 0.9 0.6 1.2 0.5 1.8 0.2 0.3 0.9-0.3 1.8-0.2 1.9 0.9 0.8 1.4 0.4 1.4 0.9 2.5 2.3 0.1-1.2 0.3-0.6 0.4-0.5 0.6-0.5 0-0.8-0.8-1.7 1.1-0.8 1.9 0.1 1.7 1 2.4 2.9 0 0.3 0.7 0.4 0.6 0.2 0.5-0.3 0.4-1.3-0.9-0.7-0.3-0.6-0.3-2-0.4-0.1-0.5 0.1-0.4-0.3-1.3-2.3-0.2-1.4 0.7-1.8-0.5-1 0.3-1.2 0.8-0.7 0.8 0.3 0-3.1-2.5-3.4-5.2-5.2-0.8 0.8-0.3 0.9 0 0.9 0.4 0.9-1.4-0.5-0.5 0.1-0.5 0.3-1.8 2 2.1 1.7-5.7-0.8 0-0.9-1.2-0.3-1.2-0.8-1-0.9-0.4-0.3-1.2 0.7-1-0.6-0.7-1.2-0.3-1.2 0.2 0 0.3-0.6 0.9-0.2 0-0.9-0.7 0-1 0.6-1.2 0.1-1.1-0.6-0.8-1.1-0.8 0-0.6 1.3-1.8 1.1-0.4 0.8 0.5 1.3 1.1 0.3 0.5 0.6-4.3-0.1 1.5-0.7-0.2-0.9 0-1.3-0.3-0.9-0.9 0.4 0-0.5-0.1-0.3 0-0.3 0.2-0.1-0.1-0.7-0.9-0.1-0.5 0.1-0.3 0.5-0.4 0.5 1.3-2.9-0.4-2.2-1.2-0.8-1.2 1.3-0.6-0.9-0.4 0.9-0.6 0.8-0.8 0.5-1.1 0.5 0 1 1.5 0.3-0.4 1.1 0 1.5-0.4 1.6-0.7 1-0.8 0.5-0.8 0.7-0.4 1.4-1.5-1 0.1 1.4 0.2 0.6 0.4 0.1 0.8-0.2 4.8 4 2 0.9 0.6 1 0.2 0.9-0.3 0.4-0.9-0.2-1.8-1.1-3-1-0.7 0.1-0.9 0.4 0 0.6-1.1 1.6-1.2 1-0.6-1-0.3-1.2-0.7-0.9-0.8-0.7-0.3-0.7-0.1-0.8-0.2-0.4-0.3-0.3-0.1-0.4 0.2-0.8 0.5-0.6 0.5-0.4 0.2-0.4-1-4.4-2-3.2-2.7-2.3-3.3-1.9-3.3-2.6-8-10.2-3.1-2.1-0.9-1.1 0.3-1.2-0.5-1.2-0.2-1.6 0.1-1.5 0.6-1.1 0-1-1.2 0.5-1 0.2-0.8-0.4-0.5-1.2-1.5 0.8-1.5 0-1.3-0.7-1.3-1.1-2.9 1.2-4.1-2.1-3.3-4-0.3-4.1-1.3-1.4-0.8-1.6-1.1-1.4-2.4-0.2 0-0.9 0.7 0 0-0.9-0.8-1-1.2-2.1-0.8-0.6 1.8-0.6 2.1 0.1 1.4-0.4-0.3-1.8-1-1.1-4-2.6 0-0.9 1.8 0.1 1.3 0.4 1-0.1 0.9-1.3 0-0.9-1.1-0.7-1.8-0.9-1.4-0.1 0 1.7-0.9-0.8-1.2-0.7-1.1-0.2 1.1-1.1-1.9-0.5-1.8-0.2-1.7 0.2-1.6 0.5 0.8-1.1 0.4-1.2 0.2-1.4-0.1-1.7 0.8 0.9 0.7-0.1 0.7-0.7 0.7-1 0-0.4 0-1.7 0-0.7 0.2-0.1 1-0.7 0.2 0-0.6-2.7-1.8-1.2-1.7-0.6-0.8-0.6-0.3-0.6-1.7-1.3-0.5-0.3-1.2-0.3-0.8-0.7-0.8-0.9-4.5-1-2.4-1-1.2-0.7-0.6 0.1-0.4-0.1 1.6-1.1 3.5 1.2 4.1 1.3 4.7 2.5 2.9 2.6 2.1 1 1.6-0.4 0.4-0.7-0.1-1 0.1-1 0.9-0.9 0.8-0.3 0.9 0 0.8 0.3 0.9 0.6 0.4-3 1.5-1.5 1.9-1.1 1.4-1.7 0.3-1.5-0.3-0.7-0.5-0.6-0.4-1.1-0.2-0.4-0.7-1-0.3-0.4 0.1-0.4 0.7-1.6 0.1-0.7-0.3-1.1-0.6-0.5-0.3-0.6 0.7-1 0.9-0.3 1 0.1 0.2 0.1 3.8 1.4 1.8 1.1 1.8 0.2 1.7-1.8 0.9-2.7-0.4-2.3-4.8-7.9-2.4-2.4-0.6-0.8-1.5-8.2-0.5-1 1.2-0.4 5.2-0.2 1.7-0.3 0.4-2.4 0.8-2.4 1.2-2.1 1.4-1.6 1.9-0.9 3.4 0.4 1.7-0.9 1.8-0.5 5.5 0.8 2.5-0.3 3.9-1.8 2.6-1.2 0.7-0.6 0.4-0.9 1.6-4.4 0.1-0.6-0.5-2.5 0-0.7-0.3-1.5 0-0.8 0.5-0.7 1.5-0.5 0.6-0.4 1.1-3.2 0.1-2.8-0.3-2.7 0.5-3.1 0.8-1.3 1.1-0.8 1.2-0.5 0.8-0.8 0.3-0.7 1.6-4 1.1-2.1 0.4-1.1 0.4-1.7-0.1-1.4-0.4-3.7 0.2-1.2 0.9-1 2.1-0.5 0.9-0.5 0.9-1.4 0.4-1.3 0.5-1.1 1.4-0.9 2.7-0.1 2.4 1.1 2.3 0.6 2.5-1.8 1-1.4 0.4-0.6 0.3-0.8-0.1-1.7 0.6-1.2 1.1-0.7 1.3-0.4 0.7-1.4 1-0.8 0.9-0.5 0.7-0.8 0.6-1.3 0.1-1.1 0.1-1.1 0.1-1.6 1.1-4.7 0.4-2.5-0.1-2.6-0.7-2.4-1.1-1.9-2.7-3.3-2.9-2.8-0.5-1-0.2-1.1-0.4-1.1-1-0.8 1.8-2.1 0.6-2.9-0.1-6.4z m325 780.8l-0.7 1.1-0.1 1.3 0.5 1.2 1 0.6 0 0.8-2.8-0.1-2.3-1.3-4.1-2.8 0-0.8 1.2 0 0.9-0.4 0.8-0.6 0.7-0.7 1.2-0.1 1.3 0.2 2.4 0.7 0 0.9z m292.6-72.4l2.7-0.7 1-0.1 0.1 0.8-0.6 0.5-0.8 0.4 0.8 2.6 0 0.8-1.6 0-2.5 0.5-0.9 0.4-1.3 0.8-0.9 0.9-1 0.6-1.3 0.3-1 0.4-1.7 1.7-1.2 0.5-1.3-0.6-1.1-1.2-0.6-1.1 0.4-0.6 1-0.5 1.8-2.4 0.8-0.5 0.3-0.4 0.7-1.8 0.4-0.4 0.8 0.1 1.2 0.7 0.5 0 3.7-1.5 1.6-0.2z m-67.3 14.6l-0.9 2.4-1.5 1.5-1.8 1.3-1.5 1.8 1.8 6.5 1.6 2.9 2.3-1.6-1 2-1.7 2-1 1.9 0.9 1.8-0.7 2.3-1 2.3-1.1 2-1.1 1.6-0.5 1.1-1.1 3-0.5 0.6-1.2 0.2-1.1 0.5-0.9 0.6-5.9 2.7-1.5 0.4-2.8 0-0.2-0.4-1.5-1.7-0.7-0.5-2.5-0.4-2 0.3-1.8-0.1-1.9-1.2-0.9-0.8-0.9-0.2-0.8 0.2-0.9 0.8-0.8 0.2-3.7-0.6-4.4 0.9-7.5 2.6-21.3-0.9-6.5 2-1.6 1-1.7 0.6-9.3-1.1-7 0.2-1.9 0.6-2.5 0.3-1 0.5-1.5 1-5.8 2.3-1.6 0.4-5.9-0.6-2.2 0.6-0.7 0.4-0.8 1-0.7 0.3-1.1 0-0.6-0.4-0.6-0.3-0.8-0.2-1.8 0.1-1.6 0.4-2.6 1.1-1.6-0.6-2-0.2-25.2 0.8 0-0.7 1.3-1.1 0.4-1.5-0.3-4.7 0.1-1.5 0.7-2.5-0.1-1.7-0.4-1.3-0.5-1.7-0.8-1.5-0.8-0.7-0.5-0.3-0.6-0.5-0.6-0.6-1.1-0.3-9.1-0.2-2.5-0.5-1.5-0.9-0.7 0-0.9 0.3-1.2-1-2.1-2.8-1.4-1-1.9-1-2-0.4-1.7 0.7-6.2-3.1-0.2-1.2 0-0.8-11.2 1.1-7.8-1.1-0.4-0.4-0.5-0.6-0.4-0.6-0.1-0.2-0.7 0-0.5 0.3-0.5 0.4-0.4 0.2-7.4 0-1.8-0.8-0.9 0-0.4 1.2-0.5-0.1-2.7 0.6-1.9-0.9-2.9-3.6-1.6-0.8-8.8 0.2-4.3-0.6-3.4-2.1-0.9 0.7-0.6 0.3-0.6 0-0.7-0.2-1.8 1.5-7.3-0.3-2.9 1.4-1.4-1.4-6 0.3-2.4-0.6-0.5-0.7 0.2-1.2-0.4-0.7-0.8-0.4-1.4-0.2-0.7-0.3-0.8-0.8-0.6-1-0.8-0.9-1.3-0.7 0.7-0.9-0.4 0-0.2-0.1-0.1-0.1 0-0.6 1.5-0.8 0.6-0.1 0.7-0.1 0.2-0.3-0.1-0.3 0.1-0.1 0.5 0-0.6-1-0.5-0.9-0.1-1.1 0.5-1.4-0.7-2.3 1.1-2.8 1.6-2.8 0.8-2-0.2-0.8-0.5-0.8-0.4-0.6-0.3 0 0.2-0.8 1-3.2 0.7-1.1 0.1-1-1.3-0.8 0-0.8 0.5-0.6 0.2-0.3-0.2-0.3-0.5-0.6 1.5-3.2 0.4-1.5-0.4-1.4 2-3.5 0.5-1.2 0.3 2.6 0 5.1 0.7 2.2 0.5 1.3 0.4 0.3 0.8 0.1 0.8 0.3 0.1 0.5-0.1 0.5 0.3 0.5 0.9 0.4 0.9 0.3 2.4 0.2 2.1-0.4 1.5-1.3 1-2.1 0.3-3.1-0.6-2.4-0.9-2.4-0.3-1.9 1.1-1.2-1-2.3-0.3-1.8 0.5-1.6 1.1-1.6 1.5-1.6 0.9 0.1 1 0.9 2 1 0 0.9-1.2 1.3 0 1.6 1.2 4-0.2 3.3 0.2 1 2.1 3.9 1.8 1.3 8.6 0.9 2.9 0.8 1.5-0.5 5.8 0.6 2.6-0.1 1.1-0.3 0.9-0.5 0.6-0.9 0.2-1.3 0.5-1 1.1-0.3 2.6 0.1-1.2-4.5 3.4-1.4 4.7 0.5 2.3 1.4 2.1 5.6-0.3 0.9-0.5 0.4-0.8 1.7-0.5 0.6-1 0.4-1 0.3-2.2 0.1-4-0.9-2.3-0.1-1.5 1 0.6 1.1 1.7 1.1 1.9 0.9 3.1 0.9 3.4 2.4 1.7 0.5 1.8-0.3 1.8-0.8 1.7-1.2 1.4-1.1 1.2 5.8 0.1 2.4-0.2 4.5 0.2 1.1 0.8 0.6 2.1 0.1 1 0.6 3.8 1.4 9.1-2.7 3.7 0.9 2.1-1.2 8.4-1.5 2.8-0.9 6.4-3.4 2.1-0.7 2.2-0.4 2.4-0.1 10.1 1.8 2.2 1.2 0.9-0.8 1.8-0.8 2.9-1 6.4 2.6 0.6-0.8 0.3-0.3 0.3-0.4 0.2-1.1 4.8 1.2 1.2 1.5 1.8-0.3 0.6 0.2 0.1 0.8-0.2 0.7-0.4 0.7-0.1 0.7 0.8 3.2 2.2 1.4 3.1 0.2 4.8-0.3 2.9-0.6 1.6 0.1 0.3 0.3 0.5 0.5 0.7 0.6 1 0.3 3.1 0 5.7-1 2.5 0.8 1.5 0.1 1.6-0.9 0.7 1 0.8-1 1.8 1.8 1.5 2.1 1.7 1.6 2.9 0.7 2.9-0.4 16.2-6.1 2.1-0.4 1.2 0.2 2.2 1.2 1.5 0.3 6.1 0-0.8 1.7-1.1 1.4-2.4 2.1 0.8 0.8-0.7 1.1-0.1 1 0.5 0.8 1 0.6-0.2-2.2 0.6-1 0.8 0.2 0.8 1.2-0.5 0.9 0 0.4 0.5 0.5-0.6 0.9-0.5-0.4-0.4-0.1-0.4 0.3-0.8 1 0.3 1.1-0.9 1.4-0.7 1.9 0.5 2.6-1.2 1 0.1 1.1 0.7 1.2 0.4 1.4 0.4 2.5 1 0.3 1.5-0.2 1.7 0.8 1.4 1.1 1.2 0.3 2.3-0.1 1.3-0.8 1.8-3.5 1.2-0.8 0.9-0.1 0.6-0.2 1-0.7 1.2-2.2 0.2-0.3 1.2-0.4 3.3-0.2 3.9-0.8 0.7-0.3 3.2-2.1 0.9-0.9 0.8-0.5 1-0.2 0.7 0.1 0.5-0.1 0.6-0.7 0.7 0 1.4 1.2 4 1-1.2 1.3 2.2 1.2 2.6-0.3 2.5-1.2 1.9-1.4-0.5-0.3 0-0.1-0.2-0.5 2.8-2.7 2-2.7 2.2-2 3.6-0.4-0.8-1.7 1.1 0.1 0.4-0.1-0.2-0.4-0.3-0.9-0.2-0.5 2.8 0z m91.5-25.9l2.2 2.1 0.4 1.4-0.5 2.7-2.6-0.7-2.7 1.1-2 2.4-0.5 3.2 0.3-0.4 0.1-0.4 0.4-0.2 0.7 0.1-0.5 1-0.8 1-1.1 0.9-1.2 0.6 0.7-2.1-0.8-0.7-1.4-0.2-1.3-0.5-0.9-1.1-0.7-1.5 0.1-1.2 1.5-0.6 0-0.7-0.7 0 0-0.9 1.7-0.5 0.1-1.3-1.1-3.5 0.1-1.7 0.3-1.1 0.1-1-0.5-1.3-0.8-0.7-2.7-1.7-0.7-1.1 0.1-1.7 0.8-1.7 0.9-1.3 0.7-0.5 2.4-1.5 0.8-3.2 0.5-3.3 2.7-3.1 0.7-3.7 0.1-3.8-0.6-2.2 0-0.8 1.5-1 0.7 0 0 1 0.7 0 0.6-0.8 1.5-1.9 0.9-0.7 0.7-0.2 0.6 0.3 0.6 0.6-0.4 1.7-1.4 2.4-0.3 1.6 0 3 0.1 1.1 0.6 1.3 0 1.1-0.6 0.9-1.2 1.2-1.2 1.5-0.5 2-0.4 1.1-1 1.2-1 1.5-0.5 2.2 0 2 0.2 0.8 2.7 2.1 2.5 4.5 0.7 0.7 0.5 0.4-0.4 0.9-0.8 0.9-0.4 0.3-0.1 0.9 0.1 0.1 0.7 0.7z m-404.2-47.6l1.8 1.4 2.1 0.8 1.5 1.9 0.3 4.5-0.7 0-0.6-1.2-2.6-2.6-0.9-1.4-0.6-1.5-1-2.8 0.5 0 0.1 0.1 0 0.4 0.1 0.4z m-27.4-52.3l6.7 4.8 1.8 2.1 1 2.2-0.6 0.5-1.6 0.1-1.7 0.8-0.8 1.2-0.4 1.7-0.2 7.4-0.6 0.2-1.5-0.1-1.8-0.5-1.2 0.2-1.2 1.2-0.4-1.8-1-0.8-2.9-0.9-0.1-0.4 0.1-0.6 0.1-0.5-0.4-0.2-1.4 0.1-0.4-0.1-0.5-0.8-1-2-0.6-0.7 0.9-7.2-0.1-2.9-0.8-3-0.5-1.4-0.4-1.1 0.2-1.3 3.2-5.5 1.2-1 1.2 0.7 4.1 7.6 1.6 2z m279.9-9.6l1.4-0.5 1-1.1 0.9-0.7 3.6 1.5 3.4 3 2 0.4-0.9 1.7-0.9-0.2-1-1-1.1-0.5-1.6 0.3-1.2 0.6-1.4 0.3-2.6-0.5-0.5 0-0.3-0.1-0.7-1-0.4-0.8-0.2-0.9 0.5-0.5z m257.3-6.2l-1.4 1.8 1.1 5.8-2.1 1.2-0.5 0.7-0.7 4.5-0.7 1.4-2.3 2.7-0.5 1.6-0.2 3.6-0.5 1.5-0.9 0.7-0.7 0.8-1.3 3.9-0.5 1.3-0.3-0.2-1.8 0-0.7 0.2-0.3 0.5-0.1 0.9-0.4 0.8-1 0.4-2.5 6.1 1 0.7 0.8 0.5 0.8 0.3 1 0.2-0.3 1-0.4 0.9-0.6 0.8-0.8 0.8 0.4 0.6 1 2-5.4-1.6-2.1-0.1-2.4 0.9-4.6 2.9-1.7 1.7-4.1 6.8-2.9 3.9-3.8 3.5-4.8 3-4.2-2.9-0.7-0.3-0.2-0.8-1.9-3.9 1.4-1.9 2.9-8.9 0.6-3.1-0.3-2.9-1-1.5-1.4-1-2.5-2.9-0.2-0.6 0.6-1-0.1-0.6-1-0.8-0.6 0.1-0.6 0-0.7-1.1 1.7-0.6 4-2.8 2.5-0.9 0.8-0.7-0.4-1 0.9-0.8 0.2-0.7 0-0.8 0.2-1.1 0.7-1.6 0.7-1.2 1-2 0.4-0.5 3.1-0.9 0.4-0.5 0.8-1.1 3.4-3.6 0.8-1.4 1-0.9 6.1-2.2 11.5-6.2 1.5-1.2 3.3-1.6 6.8 0.4 3.1-4 0.8 0 0.9 0.8 0.9 1.4 0 0.8z m-293.6-6.1l3.7 1.2 3.5 2.6 2.8 3.3 1.2 3.4-0.2 2.5-1 2.6-1.5 2-1.9 0.7-2.1-0.2-4.7-1.4-1.9-1 1.2-0.6 2.4 0.1 1.3-0.3 1-0.9 1-1.9 0.8-0.7-0.7-3.4-0.5-1.2-0.9-0.7 0-0.8 0.6-1.6-1.5-0.9-4-1.1 0-0.9 0.5-0.2 0.4-0.3 0.5-0.3z m207 5.3l-1 2.3 1.3 1.3 2.1 0.2 1.9-1.2 0.3 0.4 0.2 0.4 0.1 0.9-0.6 1.3-1.1 1.2-1.2 0.6-1.2-0.4-0.6 0.6-0.9-0.6-1.2 0.2-1.4-1.4-0.7-2.2 0.5-1.9-1.4-0.8-1.1 0.4-1 1-0.7 1.2-0.7 0-0.6-1.2-1.3-0.9-0.2-1 0.1-2.6 0.1-1.2 0.4-1.1 1 2.1 1.5-0.6 1.7-1.5 1.5-0.8 1.3 1 1.3 3.6 1.6 0.7z m-106.3-25.5l3.2 0.2 3.8 2.3 3 2.8 0.7 1.8-0.7 0.6-0.5 0.1-0.5-0.5-0.5-1.1-1.6 1.4-1.4 0.5-3-0.2-1.4 0.5-1 1.1-1.5 2.9-0.1 1.7 0.2 1.6-0.8 0.8-2.5 0.2-1.7-0.7-1.9-3.5-1.7-1 0.2-0.9 0.2-0.3 0.4-0.5-1-1.5-0.3-1.9 0.6-1 1.4 0.8 1.5-0.9 1.7 1.1 1.7 1.6 1.4 0.8 0.9-0.5 1-1.7 0.6-0.4 1.1 0.2 0.9 0.2 0.8 0.1 1.1-0.5-1.4-0.8-0.6-1.2 0.4-1.1 0.1-0.3-1.1-0.4-0.9-0.7-0.8-0.8 0-0.9z m154.9 6.2l0.1 1.5 0.2 1.1 0.4 1-0.9 0.6-0.5 0.2 0.5 0.2 0.4 0.4 0.3 0.5 0.2 0.7-2.3 1.3-1.2 0.4-1.5 0 0-0.8 0.6-0.3 0.9-0.9 0.7-0.6-4.5-1.5-1.3-0.9 1.5-1.2-4.9 0 0.7-1.1 1.1-1.4 1-1.3 0.1-1.4 0.5 0 0.2-0.2 0.7-0.7 0 0.9 1.7-2.2 2.4-1.4 2-0.2 0.2 1.1-2.9 0.9-1.3 0.9-0.7 1.8 0.9-0.4 0.5 0 0.7 1.3 3.5-2.7 0.2 0.4 0.1 0.1 0.1 0.1 0.3 0.3-0.5 0.4-0.4 0.5-0.2 0.5-0.3 0.4 0.7-0.5 0.3 0.2 0 0.7-0.3 1.3z m-308.4-9.7l8.2 5.2 1.6 2.8 0 0.8-2.6-0.2-1.6-0.5-2.8-2.8-1.7-1.1-1.6-0.7-1.4-1.2-0.9-2.3 2.1-0.1 0.7 0.1z m28.6-7l4 0.1-0.3 0.3 0 0.6 0.1 0.8-5.6 5.8-3.7 3.1-2.7-0.2 3.9-7.9 1.2-0.4 2-1.8 1.1-0.4z m-347.6-4.4l1.7 0.9 0.1 1.4-0.3 2-0.1 2.7-0.6-0.8-0.4-0.3-0.2-0.4-0.2-1.1-1.4 1 0.6-3.7 0.4-1.4 0.4-0.3z m278.5 0.9l4-2.2 2.1-0.5 1.3 1.8-0.3 1.4 0.3 7-0.9 0.9-2 1-3.4 1.1-12.4 0.3-3.8 1.5-0.4-1.8 0.8-2.8-0.4-1.6 0.4-0.3 0.5-0.8 0.5-0.5-1-0.8-0.4-0.2 1-1 0.8-2.3 1-1.1 0.5 0.7 0.6 0.7 0.8 0.7 0.9 0.5 1.4-0.3 1.2 3.7 2 1 3.5 0 1.1-0.6-0.3-1.4-0.9-1.5-0.9-0.9-1.4 0.8-1-0.8-0.9-1.4-1-1.2 0-0.8 1.2-1.4 1.3 0.8 1.8 1.5 2.4 0.8z m17.3-5.3l1.4 0.7 1 1.1 0.2 1.3-0.9 1.8-1.5 0.4-1.5-1.3-2.2-3.1 1.4-1.7 1.7 0 0.5 0.2-0.1 0.6z m64.8 8.8l0.2-0.3 0.1 0 0.1-0.2 0.3-0.4-0.9 0.1-2-0.1 0.5-1.2 0.6-1.7 0.3-1.6-0.3-0.7 4.6-3.5 1.3 1.6 1.7 3.1 1.2 1.4 1.8 1 1.9 0.6 1.6 0.9 1 2-1.3 0.2-0.7 0.9-0.1 1.2 0.6 1.2 0 0.8-2.2 3.2-3.7-1.9-6.6-6.6z m-367.6-2.6l0.1-4.6 0.4-1.9 0.9-1.4 0.5 0.3 0.4 0.4 0.5 0.2 0.7 0 0 0.8-0.5 0.2-0.5 0.4-0.4 0.3 0 1.4-0.6 1.1-0.8 1.3-0.7 1.5z m299.3-12.3l0 0.9-0.8 0.9-2.9 5.1-1.7 0.2-1.7-0.5-0.7-0.9-0.3-1.5-0.6-0.9-0.3-0.9 0.5-1.5 0.9-0.9 1.3-0.8 1.5-0.4 1.2 0.3 0.7 0.6 0.6 0.2 0.6-0.1 0.9-0.7 0.2 0.4 0 0.2 0 0.2 0.6 0.1z m83.7 0.5l0.7-1.5 1.7-1.7 2.5-1.7 0.8 0-0.8 0.9 0.6 0.1 0.2 0.3-0.1 3.2-2 1.3-2.4 0.3-1.2-1.2z m190.9-9.7l1.1 2 5.1 1.3 1.5 2.4-3.3 1.9-11.3 3.2-2.4 1.4-6.2 6.7-2.2 0.3-2.6-0.4-2.4-0.8-1.3-1-5.7 2.8-1.7 1.6 1.1 2.7-1.5 0.5-0.6 1.3 0.1 1.8 0.6 1.7-1.8-0.4-1.8-1.4-1.5-1.7-0.5-1.3 0.2-4.5 0.6-1.9 1.2 0.7 0.5-0.7 1.2-1.3 0.5-0.7 0.5 0.4 2.3 1.4 1.4-1.4 0.8-1.2 1.4-2.7 3.5-3.1 0.6-0.8 10.6-6.7 10.4-1.6 1.6-0.5z m-171.8 3.1l0.6-1.3 1-0.7 1.3-0.5 1.3-1.1 1 0.5 2.5 2.1-1 1.5-2 0.1-2.4-0.5-2.3-0.1z m40.8-7.1l1.3 1.8 1.7 1.5 1.9 1.2 2.1 0.7 0.1 0.6-0.2 0.2-0.3 0-0.3 0.1-1.8-0.7-1.8 0.4-1.7 0.5-1-0.2-1.6 1.6-4.3 3.2-1.5 0.6-1.3 1.1-2.9 4.8-1.4 1.1-8.3 2.8-4.4 0.4-1.7-3.2 1.4 0.8 0.8-1.4 1.4-1 1.5-0.3 1.2 1 0.7 0 0.7-0.7 0.9-0.2 2.3 0 0.4-0.4 1.4-3.1-1.2 0.6-0.6-0.7-0.2-1.1 0.2-0.5 1.1-0.2 11.9-6.1 0-0.8-0.6-0.3-0.4-0.2-0.4-0.3-0.8-0.1 0-0.9 2.9-0.8 1.2-0.8 0.8-1 0.8 0z m-95-1.8l-1.5-0.3-2-1.8-1.7-2.6-0.5-2.4 1-1.8 1.8-1.6 2-1 1.6 0-1.9 6.8-1 2.1 0.6 0.6 0.6 0.6 1 1.4z m-38.8-10.6l1.3 1.9 3.6 4.5 1.3 3.7 0.2 1-0.4 0.5-1.4 0.7-0.3 0.5-3.6 4-1.5-2.4-1.8-3.6-1-3.5 0.8-1.9 0-0.9-1.1-0.9-1.2-2.2-1.2-0.4 0-0.7 0.1-0.4 0.6-0.8-0.4-0.1-0.2 0-0.1-0.2 0-0.6 1.4 0 2.4 2.1 1 0.5 0.8-0.8 0.7 0z m226.8 11.5l0.9-1.7 0.5-0.5 0.7-0.5-0.7-1.9 0.5-1.6 0.9-1.4 0.7-1.2 0.2-0.3 0.4-0.6 0.3-0.9-0.2-0.9-0.9-0.7-0.8 0.1-0.7 0.4-0.4 0.2-0.8-0.8-0.5-0.7-0.9-2-0.8-0.8-0.7-0.3-0.3-0.6 0.4-1.8 1.2 1.6 8.7 3.6 0 0.9-1.4 0 1 1.7 1.3 0.8 1.1 0.8 0.2 2.1 0.8-1.1 0.9-0.5 0.9 0 0.9 0.6 0.3 1.5-0.8 2.3 0.5 1.5-0.5 0.9-0.2 0.3-0.1 0.6 0.8 0 0-0.9 0.6 0-0.7 1.9-1.7 0-3.2-1-0.5 0.8-0.2 1.1-0.3 1.1-0.7 0.5-1-0.3-0.8-0.4-0.7-0.1-0.7 0.8-0.8-1.2-0.8-1-0.9-0.6-1 0.2z m-113.4-20.3l-0.2 0.6-0.1 0.1-0.4 0.3-2.1-3.6 1.8 0.1 1.2-0.5 2.6-1.4-0.3 1-0.4 0.8 0.9 1.3 0.5 0.4-0.5 1-0.8 0.7-1 0.1-1.2-0.9z m-54.2 7l-1.2 0.4-0.6 0.8-0.4 1.1-0.7 1.3-0.7 0.8-1.3 1.3-2.9 2-1.6 0.5-3.7-0.2-1-0.4-2.1-1.9-1.1-0.4-0.9-0.6 0-1.5 1-4.9 1.3-1.6 3.2-1.9-0.7-0.5-0.7-0.2-0.7 0.1 1.4-2.1 3-2.4 3.2-1.9 3-1-1.6 2.2 0.9 0.9 2.8 0.5 1.4-1.8-0.3-0.5-0.4-1.3 1.4-0.1 1.4 0.1-0.2 1-0.4 0.9-0.4 1-0.4 0.7-1.8 4.4 0 1.8 1.8 0.8 0 0.9-1.4 0 0 0.9 1.4 0 0 0.8z m25.3-19l0.8-0.5 1.7 0.9 2.5 1.9 1.2 2.3 0.6 2.4 0.3 5.5-0.3 2.4-1 5.3-0.2 2.8-2.9 6.3-0.5 0.5-0.8 0.1-1.4 0.6-3.6 3.6-1.2 0.4-1.9 0.5-1.2 0.8-0.2-0.8-0.4-0.2-0.7-0.7-0.4-1-0.7-2.5-0.3-1-0.7-0.8-2.8-1.8 0.4-0.7 0.1-0.7-0.3-0.8-0.6-0.9-0.5-1-0.1-1 0.2-0.8 0.1-0.3-1.6-3.1-1.2-1.6-1.4-0.6 0-0.9 0.6-0.5 0.5-0.2 0.5 0.1 0.5 0.6 1-0.7 3.9-4.5 6.7-4.9 0.6-0.8 1.5-2.7 0.7-0.4 2.1-0.2 0.4-0.4z m-111.2 2.3l-0.8-0.9 3.3-2.1 1.8-0.5 1.3 0.8 0.7 0 0.5-0.7 0.5-0.1 0.6 0.3 0.5 0.5 0.6 1.8 0.3 2.3 0 2.5-0.2 2.4-0.7-1.9-0.7 0 0 1.6-0.4 1.2-0.7 0.9-1 0.7-0.3-0.3 0-0.2-0.1-0.1-0.3-0.3-0.1-0.6 0.2-0.1 0.3 0 0.3-0.1-0.9-0.6-0.9-0.2-0.9 0.2-0.8 0.6-0.2-1.3-0.3-0.4-0.4 0.1-0.5 0.8-0.9-0.6-0.8 0-0.6 0.5-0.6 0.9-0.4-1.5 0.3-0.4 0.9-0.8-0.7-0.7-0.1-0.6 0.5-0.6 0.9-0.7-0.4-1 0.2-0.4 1-0.4z m-135.2-14.1l0.6 0.4 1.7 1 0.8 0.7 0.4 1 0.2 1.3-0.2 1.3-1.1 0.5-2.1-0.5-1.3-1.2-1-1.4-1.5-1.4 0.7-0.8 0.9-0.6 0.9-0.3 1 0z m47.2-10.7l-1.7 1.6-2.4 1.1-2.5 0.4-1.9-0.4 0.4 2.6-1.2 1.3-2.2 0.4-2.3 0-5.8 1.7-2.3 0.1 0-0.9 9.2-6.2 2.4-0.8 4.6 0 2.1-0.9 3.6 0z m80.2-5.3l0.7-3.4 2.1-2.4 2.5-1.9 1.7-2 0.8 0 0 1.8-0.3 1-0.7 1.9-0.4 0.6 4 2.4 1.4 1.9-0.5 2.8-1.5-0.5-1.1 1.5-0.7 2.3-0.2 2-1.5 1.4-1.8 2-2.4 1.3-2.1 0.5 0.9-4.6 0.9-2 1.7-1.3 0-0.8-0.5-0.3-0.4-0.4-0.5-0.3 0-0.8 0.8-1.4-0.2-1.3-1-0.6-1.7 0.6z m105.5-0.8l-1.3-0.2-7.7 1 0.2-1 0-0.4-0.2-0.2 0-0.6 0.2-1 0.5-0.2 0.5 0 0.2-0.1 0.6-3.1-0.4-1.1-1.6-0.2 0.6-2 1.2-0.9 1.3-0.6 1.1-1.1 3 5.3 0.5-0.3 0.3-2.6 1-0.5 3.3 0.9 0.4 0.3 0.6 0.6 0.7 0.6 2 0.7 0.3 0.8-0.3 1.1-0.6 1.2-1.5 0.6-2 0-1.6 0.6-0.5 2.4-0.8 0z m-46.4-2.3l0.3 0.4 0.6 0.4 0.7 0.6 0.5 0.9 0.2 1.3-0.2 0.8-0.7 0.6-6.2 3.3-1.5 1-0.1-1.2 0.1-0.9 0.3-0.8 0.4-0.6 0-0.9-0.7 0-2.1 0 0.3-1.2 0.4-1 0.6-0.8 0.8-0.6-0.4-0.2-1-0.6 1.9-0.4 1.2-1.8 0.4-2.2 0-1.8-0.6-2.9-0.1-1.1 1 0 2.5 0.3 0.9 1.1 1 1.9 0.7 1.9 0.3 1.4-0.3 0.9-1 1.2-0.2 1z m-150.6-15.6l0.4 0 0.2 0.2 0 0.3 0.1 0.4 0.8 1.3 0.9 0.9 1.1 0.4 1.4 0.2 0 0.8-1.9 1.1-2.6 0.4-2.6-0.3-2-1.2 0-0.8 2.9-0.8 1.1-0.9 0.2-2z m165.8-3.4l-1.1-0.6-3.4-3.9-4-1.9-1.1-0.8-0.7-1-0.7-1.6-0.3-1.6 0.4-1.1 1.3-0.4 5.7 0.4 0.5 0.2 0.9 0.6 0 1-0.7 0 0 0.9 1 0 0.8 0.4 0.6 0.6 0.5 0.7 1.6-1.1 1.9 0.2 1.8 1.2 1 1.5 1.6-1.9 2.8 0.6 3.1 1.5 2.4 0.7-0.7 0.9 0.8 0.3 0.6 0.8 0.4 1.1 0.3 1.3-2.6 3.5-0.7 3.3-1.2 0.6-4.7-0.7-2.9-1.8-1.7-0.5-1-0.5-1.3-2.4-1.2-0.5z m-73.6-13.5l2.8 4-0.7 4-2.6 3.9-3 3.3-2.9 4-2 1.7-1.8-0.8-0.1-1.8 0.5-6.5-0.1-1.1-0.1-2.4 1.2-3 1.7-2 1.5 0.4 0.8-0.9 0.6-1-1.1 0.1-0.3-0.1 0-0.8 1-0.7 1-0.3 0.8 0.2 0.7 0.8 0.7 0 0-0.8 0.3-0.1 0.5 0 0.6-0.1z m204.2 0l-1.8 3.5-2.6 3.3-9.1 8.1-1.8 0.8-8.8 1.3-2 0.8-1.1 0.8-2 2-1.1 0.8-1 0.3-0.7 0-0.8-0.2-1.4-0.1-4 1.1-1.5-0.4-0.4-2.5 0.8-1.7 3.3-3.4 0.8-1.5 0.7-1.9 1.6-2.1 1.9-1.8 1.4-0.9 2.5-0.1 5.9 0.8 2.2-0.7 2.1 0.7 3-0.9 2.8-1.6 2.7-3.1 3.4-1 5-0.4z m-289.4-11.4l1.8 0.8-0.7 1.4-1.2 1.6 0.1 1.5-1.4 1.1-0.3 1.4 0.1 1.5-0.5 1.3-0.8 0.6-2.4 0.6-1 0.6-0.8-0.8-0.5-0.4-1.5-0.6 0-0.9 1.2-0.7-0.1-1.2-0.9-1.2-1.3-0.5-1.2-0.8-0.8-1.9-0.3-1.8 0.2-0.8 12.3-0.8z m359.8 6.1l1.2-0.8 0.6 0.6 0.2 1.4-0.6 1.5-2.5-0.8-3.7 0.8-9.3 3.7-1 0.6-1.1 1.1-0.6 0.9-0.2 0.6-0.3 0.6-1 0.5-0.9 0.2-6.5-0.2-1-0.3-0.4-0.8-0.3-1-0.4-1-1.6-2.7-1.1-0.9-2.4-0.7-1.1-1.2-0.9-0.3-0.9 0.1-1.6 0.6-2.7 0.4-1.7 0.7-1.3 1.2-0.5 1.5-0.8 0 0-1-0.6 0-1.1 1.2-1-1.3-0.6-2.2-0.2-1.6-0.1-3.2 0.4-1.4 1.1-1.2 1.8-0.6 1.8-0.2 1.4-0.7 0.6-1.6 0.9-1 11.7-2.8 3.5 0 3.7 0.7 1.4 0.8 2.7 2.3 3.6 0.9 3.9 2.8 1.1 1.1 0.4-1.4-0.6-1.1-1-1.2-0.9-1.6 1.7 0.6 1.2 0 1-0.6 1-0.9 0.1 1.5 2.8 0.9 4.8 0.4-2.9 1.3-0.6 0.4-0.2 1 0.4 1 0.7 1 0.5 1.4z m-631.5-8.5l1.7 3.6 7.1 4.6 0.9 3.9-1.3-1.7-3-1.5-3.4-1-2.8-0.2-1.5 0.7-0.9 1.2-0.7 1.1-0.7 0.5-1.4 0.6 0.1 1.6 0.5 1.5 0.4 0.7-0.2 1.7-0.4 0.8-1.1 0.2-2.2 0-0.7-0.5-3.2-4-5-4.2-2.5-2.5-0.2-2.1-2.2-2-3.9-5.4-2.4-1.5 0.7-1.5-0.4-2.2 0.6-0.8-0.9-0.9 4.2-6 2.6-2.5 2.4 0.6 0.1 0.4 0 0.3 0.5 0.6-0.1 0.2 2.1 4.1 0.8 2.5 1.1 1 2.5 1.5 3.3-0.8 4.2 1.7 3.7 2.9 1.6 2.8z m420.3 3.2l0.2 1.8-0.9 2.4-1.4 2.2-1.4 1.6 0.2 0.5 0.4 2.1-0.6 0-0.8-1.2-2.4-1.9-1.1-1.2-1.9-5.5-0.6-0.8-1.5-0.2-1.2-0.5-1.1-1-1.1-1.5-1.6-3.2-1.2-0.9-1.7 1.1-0.6-3.6-1.9-2.4-2.3-1.9-1.5-2-0.7 0-0.8 1.3-0.8 0.4-0.5-0.7 0.7-1.9-0.9-1-1.5-2.4-1.2-1 1.3-0.4 0-0.6-0.4-0.9-0.2-1.2 0.3-1.2 0.9-0.9 5.7-3.1 2.2-0.5 1.5 0.8-0.1 1.4 0.2 0.8 0.6 0.4 1.1 0 1 0.5 1 0.9 0.4 1-0.4 0.4 0 0.6 0.7 2.9 0.4 0.9 0.7 0.5 2.8 1.2 8.1 0 1 1.2-0.5 2.6-1.6 4.3 4.3 3.6-0.7 0.6-0.3 0.1-0.4 0.2 0 1.6-0.6 1.1-0.8 0.9 0 0.9 0.7 0.7 1.6-0.7 1.2 0.8z m-162.7-17l-0.7-0.9 0-0.8 0.7-1.3 1.5-1.5 1.7-0.8 3 1 1.3-1.3 1.1-1.9 0.6-1.4-1.3 0.1-0.9 0.7-0.8 0.7-0.9 0.4-0.9-0.2-1.9-0.8-1.1 0 3.6-1.8-1.3-0.7-1.6-1.1 1.2-0.1 1.1 0 1.1 0.4 0.9 0.7 0.2-1 0.2-0.2 0-0.1-0.4-0.5 0.8-0.6 0.8-0.3 0.9-0.1 2.4 0.3 1.2 0.6 0.7 0.9-0.5 1 0.1 0.7 0.2 0.9 0.6 0.7 0.6 0.5-0.1 0.1 0 0.7 2.8 0-3.5 1.7 0.5 1.4-2.3 1.9-0.3 2-0.7 0-1.1-1-0.9 0.8-1.1 1.4-1.5 0.7-1.5-0.2-3.2-0.9-1.3-0.8z m-274.9-21.3l-1.5-0.5-1.3-1.3-2.5-2.9-2.9-1.7-4-1.1-3.5 0.5-1.6 3.3-1.9-1.5-3.8-1.1-1.4-1.8-0.3-1.2-0.2-2.4-0.2-1-1.6-3-0.5-1.4 1.3 0.4 1.7 1.7 1.2 0.6 0-0.9-1.6-1.6-1-2-2.8-7.1-1.2-2-1-0.3-0.8 2.2 0.1 2.1 0.8 4.4-0.2 2.5-0.9 2.3-1.4 1-1.4 0.6-1.2 1.5-0.7 0-0.6-2.3-2.9-1.7-0.7-2.3 0.4-1.1 0.8-1.3 0.6-1.3-0.1-1.2-0.4-1.1 0.2-1 0.6-0.7 0.6-0.4 1.5-1.6 1.3-3.4 0.6-4.3 0.2-4.1 0.5 1.9 0.2 0.8 0.7 0 1.4-2.6 0.8 1 0.7 2.4 1.3 1.9 0.9-1.1 0.4 0.7 0.3 1.4 0.9 0.8 1-0.5 1.8-1.9 2.4-1.3 0.9-2.2 0.1-2.6-0.9-2.3 2.1 0.9-1.2-4.4-0.2-1 0.2-1.7 0.4-1.5 0-1.2-0.6-1.1 0-0.8 3.5 0 5.6 16 0.2 1.1-0.2 2-0.6 1.1-1 0.9-1.2 1.4 0.9 1.2 2.4 4.6 1.2 0.6 1.5-1.2 1.4-1.7 1.1-0.8-0.2 0.4-0.3 0.9-0.2 0.5 1.9 0.4 0.6 1.4 0.3 1.8 0.7 1.8 4.4 3.9 1.1 3.5 3.6 5.1 0.8 2 0.3 2.1-0.3 2.2-1.1 2.2-0.5 0.1-2.7-0.6-0.9 0.1-1.1 0.7-1.1 0.2z m-1.8-43.1l1.3 0.3 1.1 0.7 1.9 1.6-0.5 0-1.5 0 0.6 3.6 0.6 1.3 1.4 0.5 0 1-2.8 0.4-1.7 0.6-1.4-0.4-1.9-2.4 0.8-0.9-1.5-1.7-1.4-2-2-4.4-0.2-1-0.3-3-0.3-1.4-0.7-0.8-1.2-0.8-0.7-1.1 0.5-1.9 1.7 1.1 0.9-0.7 1-3.1 1.8 0.6 0.2 1.7-0.6 1.8-0.7 1.3 1.8-0.1 1.1 0.5 0.9 0.8 1.1 0.7-0.6 2.7-0.8 2.3-2.1 4 0.8 0.5 1 0.4 1.2 0.1 1.2-0.2 0-0.8-1.4-0.9 2.1 0-0.7-0.9z m23.2-27.9l-2.3 3.3-1 2.1-0.2 1.9-1.4 0 0-1 3.9-6.1 1-0.2z m536.6 8.1l-1.3 1.6-0.2 2.6-0.5 2.3-2.3 0.7 0.8 1.2 0.4 0.4 0.9 0.2-0.6 0.8 1.8 0.1 0.1 0.8-1.3 1.9-0.3 2 0 1.6 1.1 9.9 1.4 5.4-2.7 0.4-2.5 2-1.1 2.9 1 3.2 0 1.9-2.5 1.3-4.9 1.7-0.8 1.3-0.7 3-0.6 1-1 0.4-2.1-1-1.5-0.3-1.1-0.7-2.2-3-0.5-0.2-0.4 0.1-1-1-1-1.6-0.4-1.5-0.5 0.2-1.2 0.4-0.4 0.2 0-0.9-0.1-1.8 0.1-0.9-1.7 1.1-0.8-0.8 0.2-1.8 0.9-2.1 1-0.8 1.3-0.5 1.9-0.4 0.5-0.5 1.2-1.3 2.5 0.2 0.6-0.2 0.7-1.6 0-1.6 0.5-1.4 1.7-0.8-0.6-1.5 0.2-3.2-0.3-1.6-0.2 0.5 0 0.1-0.1 0-0.5 0.3-0.5-1-0.6-0.8-0.8-0.5-0.9-0.4 0.6-1.2-0.1-1.8-0.5-1.9-0.7-1.4-1.2-1.3-1.2-0.4-1.3-0.3-1.8-0.7-1.5-1.3-3.3-4.1-0.9-1.8-0.2-2 0.5-1.5 0.8-1.4 0.3-1.9 15.1-3.1 2.1 0.3 4.9 1.6 0.3 0.9 4.3 5.3 0.3-0.6 0.1-0.6 0.3-0.5 0.7-0.1 0.1-0.6-0.2-0.2-0.2 0-0.3-0.1 1.5-0.5 1.3 0.3 1.2 1.1 0.9 1.8z m-59.1-9.1l0.7 1 2.8 2.7 0 0.6-0.1 0.2-0.3 0-0.4 0.1-0.8 4.6-0.2 0.8-1.4-0.2-1.1-0.4-1-0.1-1.1 0.7-0.3-1.2 0.2-0.8 0.3-0.8-0.2-0.8-0.4-0.6-1.2-1.2-0.5-0.9-1.2-1.1-0.5-0.7 0.3-0.9 0.7-0.4 0.6 0.3 0.5 0.6 0.3 0.4 0.6-0.9 0.8-0.7 0.8-0.1 0.7 0.8 0.6 0 0-1 0.8 0z m-514.1-0.8l-0.9 1.3-1.1 1.9-1.5 3.2-0.7 0 0.1-3.4 1.8-12.7 1.9-4.3 0.4-2.7 1.8-4.9 1-0.5 0.8-1.3 1.3-2.8 1.3-1.5 1.9-1.7 2.3-1.2 0.2 0.5 0.2 0.7 1.2 0.5 1.6 1.9 0.4 2 0.1 1.9 0.7 1.5-0.6 1.6 0.1 1.2 0.3 1.1 0.2 1 0.1 1.2-0.1 0.7-0.4 0.7-2.4 3.6-0.5 1 0.2 1 0.7 0.3 0.5-1 0.5-1.5 0.7-1.1 0.1 2-0.3 7.1-0.5 1.5-0.6 0.2-0.8-1.7-0.7 0 0.2 0.6 0.5 2.1-0.4-0.3-1.1-0.6 0 1-0.2 0.5-0.2 0.4-0.2 0.8-1.7-0.9-1.7 0.3-0.8 1.1 0.7 1.4 0 0.8-1.1-0.1-0.6-0.5-0.2-0.9 0.4-1.2-2-0.4-1.1-2.6-1.8 1.2z m420.4-25.3l0.2 0.4 0.2 0.3 0.2 0.6 0.1 1-0.1 1.1-0.3 0.1-0.4-0.1-0.6 0.3-0.6 0.9-0.7 0.8-0.7 0.1-0.8-1-0.7 0-1.1 0.9-1.2-0.5-0.9-1.3-0.4-1.3-0.6 0.1-1.3 0.6-1.3 1.2-0.3 2.1-3.5-4.5 4.2-1.8-1-3.8-0.7-0.9-1.1 1.1-0.6 0-0.4-1.4-0.8-0.5-1.2 0.3-1.2 0.7 0-1.4-2.3-1.1-0.5-2-0.4 0.3-0.3 0.6-0.8-1.2-0.9-0.6-1 0.1-0.9 0.8-0.1-1.3 0.4-1.2 0.7-0.8 0.8-0.4 0.9-0.6 0-1.5-0.5-2.4 0-1.9 0.4-1.7 1-1.2 2.1-0.6 7.1 4.9 1.3 1.5 0.3 1.3-0.4 3.2 0.1 1.7 0.5 1.4 0.6 0.6 1.7 0.8 4.3 3 2.1 2 1.4 2.2z m-9.1 85.4l-0.9 6.5 0.1 3.3 1.5 2.9-0.9 1.8-1.1 5.7-0.9 2.2-1.5 1.3-2.1 1.1-2.3 0.9-2.2 0.3-1.1-0.3-0.4-0.8-0.2-1.5-2.4-4-0.4-0.1-1.5-1.3-2.7 1.3-1.7 2 1.6 1.1 0 1-1.6 1.3-1.5-0.2-1.5-1.1-1.9-2.2-0.5-0.8-0.7-1.6-0.7-1-0.7-0.8 0-0.8 1.4-0.9-1.3-3-0.9-0.9-1.4 0.3-0.6-2.1-1.8-1.2-2.1-0.2-1.7 0.8-1.5-0.8-0.5 0.1-0.9 0.7 0-0.6 0.1-0.2 0.2-0.1 0.4-0.1 0-3.4-0.8-0.8-1.7 0.4-0.3-1 0.4-0.9 1.9-2 0.5-1.2-0.2-1.6-1.5-1.8-0.9-3.4-1.3-1.1-1.6-0.4-1.5 0.4 0.7 1.8-2.4-0.6 0.5-2.4 1.8-2.7 1.5-1.5-1-1.7-0.8 0-0.8 0.9-0.9 0.8-0.2 0.4 0 0.6-0.1 0.6-0.8 0.2-0.9-0.3 0-0.5 0.3-0.7 0.3-0.3 0-1-1.5 0 2.2-4.4-2.1-1.2-2.3-0.9-2.5-0.5-3-0.2 2.5-0.8 1-0.6 0.7-1.3-0.8-1.2-0.2-1.1 0.1-0.9 0.2-0.3-1.1-2.2-0.7-0.9-0.3 0.8-6-0.4-7 0.9-2.1-0.3-3.5-1.3-1.5-0.2-2 0.2-3.1 0.7-1.5 0-7.1-1.8-1.6 0.1-3.2 1-1.5-0.2-1.1-1.3-2.4-6-0.4 0.5-0.4 0.5-0.5 0.1-0.8-0.1 1-2 1.9-2.1 1.3-2.1-0.7-1.9 0-0.9 0.7 0 0-0.9-2.2-3.8-1.4-1.8-1.7-0.7-4.5-0.7-2.2-0.9-1.4-1.1-0.3-1-0.1-2.3-0.3-1.1-2.4-2-0.4-0.4-0.4-0.4-0.7-0.2-0.7-0.6-0.3-1.5-0.5-0.9-0.9-0.9-3.1-2-2.6-1.2-2.9-3.1-1-0.5-0.6-0.5-1-2.6-0.5-0.5-2.3-1.3-10.1-7.6-3.5-1.9-2.5-0.9-1.3-0.1-1.8 0.1-3.1 0.7-1.5-0.1-1.3-1.1-2-2.6-0.8-0.4-1.4-0.1-1.7-0.3-1.6-0.7-1.4-0.4-1.4 0.4 0 1 1.5 0.1 1.4 0.5 0.8 1.2-0.1 1.8-1 0.8-1.6 0.5-11.3 1.1-2.3 1.3-0.1-1.5 0.1-1.5 0.4-1.2 0.6-0.4 0.9-0.5 2.4-1.8 1-0.4 2.3-0.5 4.7-2.6 3.1-0.8 2.9-1.6 2.5-0.9 0.4-0.4 0.4-1.8 0.2-0.5 1.2-0.4 2.1 0 0.9-0.6 0.8-1 0.3-1.3 0-1.2-0.3-0.9 1.5-0.5 1.9-1.9 1.1-0.4 6.3 0 2.2-0.7 5.4-3.2 2.7-0.5 1 0.6 1.5 1.7 0.6 0.4 1.4 0.2 1.5 0.5 1.4 0.8 1 1.2-0.7 2.5 1 2 2.1 1.3 2.2 0.4 0 1.4 1.7 6 0.8 1.7 0 1.5 1.2 2.5 1.9 2.3 4.5 2 4.5 3.8 2.7 0.6 0 1-0.3 1 0.3 0.5 0.6 0 0.8-0.7 1.2 1.4 3 0.5 1.4 0.8 1-0.7 1.1 0.7 2-1.3 2.1 0.4 1.6 1.7 0.7 2.4 0.9 1.6 2 1.4 4.1 1.9 4.5 1.5 5 0.4 2.2 0.5 2.1 0.8 1.9-0.1 1.9-2.1 2.2 1.1 2.3 0 2.4-0.3 2.2 0.1 6.5 2.3 2 1.2-1.1 0.4-1.1 0.8-0.9 1.1-0.4 1.4-0.1 2.2 0.6 1.2 9.2 7.8 1.6 2.3-2.6 2-1.9 4.3-0.4 4.5 2 2.8 0 0.8-1.9 0.6 0.3 1.2 2.3 2.7 0.2 1.6 0.1 2.1 0.1 1.7 2.5 3.1 0.2 1.3 0.5 0.7 0.5 0.4 0.2 0.3-0.1 2.3 0.1 1.2 0.6 0.9-1.1 1.7-0.2 0.6 0.7 1.7 1.3 1.6 2.8 2.1 3.6 1.8 0.3 0.8 0.3 1.2 0.5 1.1 0.7 0.4 3.5-0.7 1.4 0.1 2.9 2.2 4.1 0.4 1.8 0.7 1.9-1 9.4-1.7z m-118.3-129.8l-1.2-0.4-1.1-0.1-1 0.1-1 0.4 0.4-2.3 1.2-0.9 1.3-0.3 0.6-0.5 0.5-1.4 1.1-1.6 1.4-1.3 1.3-0.7 1.6 1 1.8 1.6 0.9 2.1-0.8 2.6-1.6-1.3-1.5 1.4-1.5 3.5-0.7-0.2-0.9-1.2-0.8-0.5z m23.9 3.7l-1-0.7-3.3-3.2-0.6-1.1-0.4-1.8-3.1-5.1 1.4-0.8 0.1 0.7 0.3 0.1 0.4 0 0.6 0 2.4 2.7 2.8 2.4 3.2 1.9 3.5 1.2-0.4 1.9 2 0.4 2.7-0.1 2.1 0.6 0 0.9-3.4 3.6-1.9 1.4-2.5 0.4-1-0.3-1.5-1.3-2.7-0.5-0.9-0.6 0.1-0.9 1.1-0.9 0-0.9z m-362.6-16.4l1.6 1.8 1.8 1.4 1.7 2 1.2 3-2.1 0-1.3-0.4-1-0.8-2.1-2.7-1.1-1.8-0.3-1.7 1.6-0.8z m390.1 2.7l-1.6 4.1-2.6 3.8-3.2 2.4-3.2-0.3 1.4-1.9 1.4-1.2 1.2-1.4 1.7-5 5.2-8.3 1.8-1.2-0.2 0.5 0 0.4-0.2 0.5-0.3 0.5 2.2 0.4-0.5 2.7-1.8 3-1.3 1z m274.9 22.8l0 1.2-0.2 2.3-1.3 1.4-3.1-1.3-1.7 0.9-1.2-0.5-1-1.3-1.1-1 0.8-0.8-0.9-0.7-0.2-0.6 0.2-0.7 0.1-0.7 0.1-0.5 0.6-1.4 0.1-0.8-1.2-1-0.2-0.5-0.7-1.9-1.8-0.6-3.5 0.3-1.8 1 1.6 2.3 4 3.1 3.8 5.5 1.9 1.6 0 1-0.3 0.6-0.1 0 0.1 0.1 0.3 1.1-2.7 1.2-3.3 0.8-6.6 0.7-1.8-0.3-3.3-1.2-3.7-0.5-1.4-0.7-2.5-1.8-2.5-1.2-6.1-1.3-5.3-0.2-1.1-0.4-0.9-0.9-3.2-4.6-1.1-1.1-1.7-0.3 0-0.8 0.6-0.3 0.9-0.7 0.7-0.2 0.4 0 0.4 0.2 0.5 0 3.9-0.9 0.5-0.4 1.6-2.7 1.1-0.9 1.2-0.2 1.1 0 1.3-0.3 2.7-2.7 3.1-2.4 0.1-0.4 1-0.5-0.3-1.3-1.1-1.3-1-0.6-3.3-0.8-1.2-0.1-2.2 0.3-1.8 0.5-1.4 0.9-1.4 1.5-1.5 3.7-0.3 0-4.6 6.6-1.5 1.4-2 0.6-2.1-0.3-8.7-3.3-1.5-0.9-1.5-1.1-1-0.5-1.3-0.2-1.8-0.8-3.6-3.7-2-1 0-1 1.1-0.4 0.5-1.2 0.1-1.5 0.4-1.4-0.4-0.1-0.3-0.2-0.3-0.3-0.4-0.3 0.8-0.5 0.4-0.6 0.2-0.8 0-1.3 0.4-0.9 0.8-0.6 1-0.3 0.7-0.4 2.8-2.8 0.7-0.9 0.7 0 1.2 2.7 3.4-0.3 3.8-1 2.8 0.5 0.4-0.8 0.4-0.5 0.4-0.6 0.2-0.9 0.6 1.3 0.1 0.6 0.7 0 1.3-1.9 2.1-0.9 4.4-0.8 2.7-1 1-1.5-0.2-2.4-0.7-3.4 18.4-0.6 2 0.6-0.8 3 1.9 1.2 2.8 0.8 1.8 1.4-0.7 1.3-3.2 5.1 0.2 0.7 4.4 4.3 3.5 1.4 0.8 0.7 0.4 0.5 3.5 5.3 1.4 1.2 2.2 1.3-1.3 1 0.4 1.1 0.7 1 1 1 0 1.3 0.3 0.8 0.7 0.3 1.1-0.1-0.1 2.7 1.3 2.9 1.9 2.5 1.5 1z m-164.4-68.3l3.6 2.4-0.7 3.3-5 7.2-0.7 0-1.2-6.4 0.3-3 2.2-1.7-0.3-1.1 0.2-0.5 0.7-0.2 0.9 0z m-505.6 17.3l0.5 1.4 0.9 4.1 1.3 1.9 0 0.9-1.3 0.9-0.9-0.8-2.5-0.8-2.4-1.7-1.7-0.8-1.8-0.4-1.6-0.1-0.9-0.6-2.6-2.3-1.1-0.7-1.7-0.2-1.5 0-1.2-0.4-0.4-0.6 0.7 0.2 0.7-0.6 0.6-1.2-3.5-1.2-1.4-0.6 0 0.3-0.1 0.5 0 0.2-1.3-2-1.1-2.8-0.8-2.7-0.7-5.7-1.2-2.7-2-2.2-2.6-2-2.4-1.2-1.3-0.9-2.7-6.2-0.3-0.9-1.8 0-1.2-0.1-0.9-0.8-0.7-1.8 0.3-3.1-0.6-1-1.9 1.2 0.1-2.1-0.4-1.5-0.9-0.8-1.5 0 1-1.1 2.7-3.8 0.5-1.2 1-0.2 9.5-0.4 3-0.6 2.7-1.2 2.7-1.7 1.5 0.4 0.9 0.8 0.8 0.8 1.1 0.8 2.6 0.9 1.1 0.6 0.5 1.2 0.7 0 0-1 0.7 0-0.1 4.2-1.3 2.4-2.2 1.4-6.3 2.7-1 0.8-0.6 1.6 0.3 1.7 0.9 1.3 1.1 0.5 0 1-1.4 0 0 0.8 6.1 3.2 2.4 0.5-0.4 2.9-0.6 0.6-1.8-0.7 1.2 2.8 2.1 13.9 0.4 0.8 1.2 0.8 1.4 0.5 2.9 0.6 1.3 0.6 2.2 1.7 0.9 0.3 1.9-0.2 1.5-0.5 0.9-0.6 0.8 0.2 1 1.8z m550.5-80.5l-0.8 1.4-0.5 0.4 0 0.9 0.5-0.1 0.1 0.2 0 0.4 0.3 1.2 0.2 1.4 0.2 0.6-2.4 1.4-2.5 1.9-1.7 2.6 0.4 3.3-1.4 0-1.2 0.3-0.9 0.7-0.7 0.8 1.4 0.9 0.7 0.1-1.6 0.8-1.2 1.2-0.1 1.3 1.5 1.2-1.3 1.4 0.6 1.5 1.3 1.3 0.8 1.3 0.1 0.9-0.1 0.2-0.5 0-0.9 0.8-0.1 0.9-0.1 1.3-0.4 0.8-1.1-0.8-0.6-0.3-3-1-0.8-0.6-0.2-1.3 0-1.2-0.3-0.6-1.8-0.6-1.7-2.7-1.8-0.3 2.3-1.7 1.3-1.3 0.6-1.2-0.5-1.9-1.2-1.3-1.3-0.7-1.2-0.2-4.3 3.6 0.9 0 0.8 0.2 0.6 0.3 0.6 0.5-1.9 0.3-1.3 1.3-1 1.8-0.8 2 0.9-0.4 0.2-0.1 0.3-0.4 1.2 1.4 1.3 2.2 0.6 2-0.6 0.9-2.3-0.2-1.8-0.3-3.3-1.4 2.4-3.7 0.4-0.4-0.5-1.5-1.2 0.5-1.2 1.3-0.6 1.1-0.7 0-0.1-1-0.2-0.6-0.2-0.5-0.2-0.6-6 1.8-1.1 0.9-0.6 0 0.3-0.8 0.4-0.7 0.5-0.6 0.8-0.6-0.5-0.3-0.8-0.5-0.7-0.2 0.1-1.2-0.1-0.6 0.6-0.5 0.7-0.4 0-1-0.7 0 0-0.8 0.5-0.2 0.2-0.2 0.7-0.6-0.7 0 0.8-1.9-0.4-1.2-1-1-0.7-1.4-0.1-1.9 0.1-1.8-0.2-1.3-1.2-0.5 0-0.9 3.6-0.2 6.5-1.6 1 0.2 0.7 0.7 0.4 0.6 0.4 0.3 1.6-0.2 5.5-1.6 2.2 0.8 1.4 1.6 1.2 1.9 1.5 2.1-0.2 1 2.3-0.9 2.8-1.6 1.4-1.3 0-1.2 2.2-3.2 1.3-1.1 0.4 0.1 2.7-0.1 0.9-0.2 2.9-1.6z m24.8-55.4l0.5 2-1.3 1.3-9.6 3.4-2.3-0.2-3.6-2.1-6.8-5.5-1.4-1.7-0.9-1.8 1.9 0 6-3.5 2.7-1 3 0 8.3 2.6 1.6 1.1 1.7 1.7 0.9 1.9-0.7 1.8z m-92.9-38.9l-2.2 0.1-0.6 1.5 0.7 1.6 2.1 0.5 0 2.7-1.8 0.6-0.3 1.9 0.7 4.1 0.7 1.5 0.3 1.1-0.3 1.1-0.7 0.1-1.8-1.2-0.3 0.6-0.8 1-1.8 0.7-3.4 0.6-1.3 0.5-2.5 2.4-1.5 0.9-0.5-1.3-0.7-0.9-1.6-1.6-0.4-0.1-0.8 0.2-0.3-0.1 0-0.4 0.1-1.1-0.1-0.3-1.4-1.4-0.7-0.4-2.8-0.7-2.3-0.1-1.4-1.1-0.5-3.7 0.6-3.5 1.6-3.5 3.4-5.1 7.8-6.5 3.3 1.6 4.2 0.5 1.7 0.6 0.4 0.9 0.2 1.3 0.6 1.1 1.2 0.5 1.1 0.3 0.9 0.7 0.8 0.9 0.4 0.9z m-92.7 513.2l0.3 0.7 0.2 0.5-0.5 0.3-0.8-0.6 0-0.9 0.8 0z m-43.6-10l0.4 0.6 0.3 1.4-0.3 0.3-0.6-0.3-0.3-0.9-0.1-0.3-0.2-0.1 0.1-0.7-0.4-1 0.7 0.2 0.4 0.8z m421.8 86.6l5.3 0.3 0.2 0.6 0 1.2-0.4 1.1-0.5 0.4-0.8 0-2 0.5-1.5-0.3-1.8-0.1-2 0.5-1.3-0.6-0.1-1.8 0.9-1.2 0.8-0.2 1.5-0.3 1.7-0.1z m-39-47.3l0.9 1.1 1.2 2.5-0.8 2.4-2.4 1-1.4 0-2.2-0.3-1-0.8-0.4-1.4 1.1-2.6 3.1-1.9 1.9 0z m-32.2-66.6l0.6 0.6 0.9 1.6 0 1.4-0.7 0.3-0.5 0 0 0.4-0.5 0.3-0.9 0.1-1.2-0.1-1.3-0.9 0-0.9 1.2-0.7 0.3-0.9-0.9-0.1-1.4 0.8-1.3-0.1-0.7-1.2 0.4-1.2 0.3-1-1.1-0.7-1.1-0.5-0.7-0.8-1.3-1-0.3-1.7 1.1-1.1 1.5 0.1 0.3-0.3-0.1-0.8 0.8-0.2 0.9 0.7 0.6 0.2 0.4-0.1 0.4 0.2 0.4 0.2 0.7 0.3 0.9 0.2 0.3 0.7-0.7 1.4-0.2 1.2 1 0.4 1.1 0.7 0.5 1.6 0.3 0.9z m-28.1-28.6l0.5 0.8 0.3 1.2-0.6 0.3-0.5-0.5-0.7-0.4-0.4-0.1-0.4-0.2-0.9 0-0.9 0.7-0.4 0.9-0.1 0.6-0.4 0.3-0.6 0.1 0.5 0.9 1.1 1.5 0.3 4.3-1.1 0.5-1.1-0.8 0.1-0.8-0.3-0.6-1.2-0.5-0.4-1.1 0.5-3.2 0.4-0.8 0.1-0.9-0.3-1.1-0.2-1.8 0.3-1.5 0.9-0.1 1.1 0.1 1.3-0.3 1.2 0.6 1 0.7 0.7 0.7 0.2 0.5z m-191.1-33.5l-0.1 0.8 0.3 1.6-2.3 0.3-4.7-0.9-1.3-0.9 1.8-0.3 1.7-0.7 1-1.3 1.2-0.8 1.8-0.1 0.8 0.8-0.2 1.5z m-389.8-135.7l0.7 0.5 0.1 1.3-1.2 1.5-1.3 1.1-1.5 0.9-0.8 0.4-0.8 0.5-1.2 1.2-0.8 1.6-0.9 0.3-0.3-1.3 0.3-1.5 1.8-3.4 1.6-1.8 1.8-0.7 2.5-0.6z m-14.8-1.6l0.4-0.1 0 0.5-0.3 0.7-0.6 0.7-0.8 0.9-2.6 0.7-0.4 1.5 1.4 1.2 0.9 0.9 0.1 0.3 0.8 0.6 1 1.2-1.4-0.5-3.6-3.5-1.5-3.4 1-1.5 1.6-0.3 2.1-1.2 0.6 0.5 0.4 0.3 0.5-0.2 0.3 0.2-0.1 0.4 0.2 0.1z m337-90.9l1 0.5 0.4 0.4-0.1 2.1-1.2 3.3-1.9 1.1-1-1.1 0.1-1 0.5-0.3-0.4-0.5-1-0.6-0.5-1 0.4-1.4 0.6-1.4 0.8-1.3 0.9-0.2 0.2 1.3 0 1 0.5-0.4 0.7-0.5z" id="GR" name="Greece">
  </path>
 </g>
 <g id="points">
  <circle class="35.16178214607579|20.05713951257528" cx="101.7" cy="911.1" id="0">
  </circle>
  <circle class="37.93596899106877|24.363780142147977" cx="544.3" cy="556.2" id="1">
  </circle>
  <circle class="41.40370254731|27.809092645806135" cx="898.3" cy="93.1" id="2">
  </circle>
 </g>
 <g id="label_points">
  <circle class="Greece" cx="271.4" cy="312.4" id="GR">
  </circle>
 </g>
</svg>